<svg xmlns="http://www.w3.org/2000/svg" version="1.1" xmlns:xlink="http://www.w3.org/1999/xlink" xmlns:svgjs="http://svgjs.com/svgjs" width="1040" height="620" preserveAspectRatio="none" viewBox="0 0 1040 620"><g mask="url(&quot;#SvgjsMask6481&quot;)" fill="none"><rect width="1040" height="620" x="0" y="0" fill="#0e2a47"></rect><circle r="78.60161259473782" cx="649.69" cy="433.51" fill="#d3b714"></circle><rect width="243.35999999999999" height="243.35999999999999" clip-path="url(&quot;#SvgjsClipPath6482&quot;)" x="-102.81" y="341.24" fill="url(#SvgjsPattern6483)" transform="rotate(334.57, 18.87, 462.92)"></rect><path d="M593.24 726.5 L637.6700000000001 562.61L529.9272588773392 559.0272588773392z" fill="rgba(205, 229, 21, 1)"></path><rect width="271.48" height="271.48" clip-path="url(&quot;#SvgjsClipPath6484&quot;)" x="34.35" y="399.38" fill="url(#SvgjsPattern6485)" transform="rotate(206.06, 170.09, 535.12)"></rect><rect width="252" height="252" clip-path="url(&quot;#SvgjsClipPath6486&quot;)" x="545.04" y="367.04" fill="url(#SvgjsPattern6487)" transform="rotate(62.24, 671.04, 493.04)"></rect><path d="M548.05 623.51 L583.75 590.24L546.6608886354911 587.6358886354911z" fill="rgba(205, 229, 21, 1)"></path><rect width="138.2" height="138.2" clip-path="url(&quot;#SvgjsClipPath6488&quot;)" x="-10.87" y="316.51" fill="url(#SvgjsPattern6489)" transform="rotate(60.42, 58.23, 385.61)"></rect><path d="M78.06 237.51 L203.03000000000003 194.36L69.82863056999234 145.21863056999234z" stroke="rgba(205, 229, 21, 1)" stroke-width="1.54" stroke-dasharray="3, 3"></path></g><defs><mask id="SvgjsMask6481"><rect width="1040" height="620" fill="#ffffff"></rect></mask><pattern x="0" y="0" width="13.52" height="13.52" patternUnits="userSpaceOnUse" id="SvgjsPattern6483"><path d="M0 13.52L6.76 0L13.52 13.52" stroke="#e73635" fill="none"></path></pattern><clipPath id="SvgjsClipPath6482"><circle r="60.839999999999996" cx="18.87" cy="462.92"></circle></clipPath><pattern x="0" y="0" width="271.48" height="12.34" patternUnits="userSpaceOnUse" id="SvgjsPattern6485"><rect width="271.48" height="6.17" x="0" y="0" fill="#d3b714"></rect><rect width="271.48" height="6.17" x="0" y="6.17" fill="rgba(0, 0, 0, 0)"></rect></pattern><clipPath id="SvgjsClipPath6484"><circle r="67.87" cx="170.09" cy="535.12"></circle></clipPath><pattern x="0" y="0" width="6" height="6" patternUnits="userSpaceOnUse" id="SvgjsPattern6487"><path d="M0 6L3 0L6 6" stroke="rgba(197, 15, 169, 1)" fill="none"></path></pattern><clipPath id="SvgjsClipPath6486"><circle r="63" cx="671.04" cy="493.04"></circle></clipPath><pattern x="0" y="0" width="138.2" height="13.82" patternUnits="userSpaceOnUse" id="SvgjsPattern6489"><rect width="138.2" height="6.91" x="0" y="0" fill="rgba(205, 229, 21, 1)"></rect><rect width="138.2" height="6.91" x="0" y="6.91" fill="rgba(0, 0, 0, 0)"></rect></pattern><clipPath id="SvgjsClipPath6488"><circle r="34.55" cx="58.23" cy="385.61"></circle></clipPath></defs></svg>