<svg xmlns="http://www.w3.org/2000/svg" version="1.1" xmlns:xlink="http://www.w3.org/1999/xlink" xmlns:svgjs="http://svgjs.com/svgjs" width="1920" height="1080" preserveAspectRatio="none" viewBox="0 0 1920 1080"><g mask="url(&quot;#SvgjsMask1203&quot;)" fill="none"><rect width="1920" height="1080" x="0" y="0" fill="#0e2a47"></rect><path d="M89.45 941.14L93.64 941.14L93.64 945.33L89.45 945.33z" stroke="#d3b714"></path><path d="M392.63 965.35 a37.25 37.25 0 1 0 74.5 0 a37.25 37.25 0 1 0 -74.5 0z" fill="#e73635"></path><path d="M730.98 362.9a101.08 101.08 0 1 0 95.9-177.97z" stroke="#037b0b"></path><path d="M1205.71 790.64 a99.86 99.86 0 1 0 199.72 0 a99.86 99.86 0 1 0 -199.72 0z" stroke="#e73635"></path><path d="M1115.71 610.88L1204.64 610.88L1204.64 628.86L1115.71 628.86z" stroke="rgba(32, 236, 39, 1)"></path><path d="M1582.3 374.5 a104.47 104.47 0 1 0 208.94 0 a104.47 104.47 0 1 0 -208.94 0z" stroke="#e73635"></path><path d="M663.42 319.68L742.18 319.68L742.18 387.7L663.42 387.7z" stroke="rgba(32, 236, 39, 1)"></path><path d="M1889.33 1056.56 a3.73 3.73 0 1 0 7.46 0 a3.73 3.73 0 1 0 -7.46 0z" stroke="rgba(210, 10, 115, 1)"></path><path d="M383.78 853.91 a96.07 96.07 0 1 0 192.14 0 a96.07 96.07 0 1 0 -192.14 0z" fill="#037b0b"></path><path d="M1294.22 753.08 a28.05 28.05 0 1 0 56.1 0 a28.05 28.05 0 1 0 -56.1 0z" fill="#037b0b"></path><path d="M1842.77 767.58L1860.34 767.58L1860.34 785.15L1842.77 785.15z" fill="#e73635"></path><path d="M566.44 548.35 a104.16 104.16 0 1 0 208.32 0 a104.16 104.16 0 1 0 -208.32 0z" fill="rgba(210, 10, 115, 1)"></path><path d="M1507.28 1021L1531.04 1021L1531.04 1082.7L1507.28 1082.7z" fill="rgba(107, 1, 167, 1)"></path><path d="M1818.9 481.9 a75.55 75.55 0 1 0 151.1 0 a75.55 75.55 0 1 0 -151.1 0z" fill="#e73635"></path><path d="M1204.59 318.29L1262.13 318.29L1262.13 375.83L1204.59 375.83z" fill="rgba(107, 1, 167, 1)"></path><path d="M1839.26 348.32L1921.36 348.32L1921.36 430.42L1839.26 430.42z" fill="rgba(210, 10, 115, 1)"></path><path d="M1002.48 190.76L1026.12 190.76L1026.12 221.13L1002.48 221.13z" fill="#d3b714"></path><path d="M72.33 465.8L92.48 465.8L92.48 480.62L72.33 480.62z" fill="rgba(107, 1, 167, 1)"></path><path d="M277.46 621.59L321.59 621.59L321.59 680.31L277.46 680.31z" fill="#d3b714"></path><path d="M815.05 492.96L876.53 492.96L876.53 526.41L815.05 526.41z" fill="rgba(210, 10, 115, 1)"></path><path d="M897.8 828.5a100.19 100.19 0 1 0 75.38 185.66z" stroke="rgba(107, 1, 167, 1)"></path><path d="M1147.48 781.47a38.26 38.26 0 1 0-69.06-32.97z" stroke="rgba(6, 99, 197, 1)"></path><path d="M401.42 793.55L479.31 793.55L479.31 871.44L401.42 871.44z" fill="rgba(107, 1, 167, 1)"></path></g><defs><mask id="SvgjsMask1203"><rect width="1920" height="1080" fill="#ffffff"></rect></mask></defs></svg>