<svg xmlns="http://www.w3.org/2000/svg" version="1.1" xmlns:xlink="http://www.w3.org/1999/xlink" xmlns:svgjs="http://svgjs.com/svgjs" width="1040" height="620" preserveAspectRatio="none" viewBox="0 0 1040 620"><g mask="url(&quot;#SvgjsMask1220&quot;)" fill="none"><rect width="1040" height="620" x="0" y="0" fill="#0e2a47"></rect><path d="M741.08 589.36L741.93 602.14 729.66 605.78 730.51 618.56 718.24 622.2 719.09 634.98 706.82 638.62M734.51 584.79L735.37 597.57 723.09 601.21 723.95 613.99 711.67 617.63 712.53 630.41 700.25 634.05M727.94 580.22L728.8 593 716.52 596.64 717.38 609.42 705.1 613.06 705.96 625.84 693.68 629.48" stroke="#d3b714" stroke-width="2.28" stroke-dasharray="4, 4"></path><rect width="159.84" height="159.84" clip-path="url(&quot;#SvgjsClipPath1221&quot;)" x="431.02" y="473.95" fill="url(#SvgjsPattern1222)" transform="rotate(80.22, 510.94, 553.87)"></rect><path d="M449.3 320.99a5.6 5.6 0 1 0-10.48-3.94 5.6 5.6 0 1 0 10.48 3.94zM434.33 315.36a5.6 5.6 0 1 0-10.49-3.94 5.6 5.6 0 1 0 10.49 3.94zM419.35 309.73a5.6 5.6 0 1 0-10.49-3.93 5.6 5.6 0 1 0 10.49 3.93zM404.37 304.11a5.6 5.6 0 1 0-10.48-3.94 5.6 5.6 0 1 0 10.48 3.94zM484.89 317.26a5.6 5.6 0 1 0-10.49-3.93 5.6 5.6 0 1 0 10.49 3.93zM469.91 311.64a5.6 5.6 0 1 0-10.48-3.94 5.6 5.6 0 1 0 10.48 3.94zM454.93 306.01a5.6 5.6 0 1 0-10.48-3.94 5.6 5.6 0 1 0 10.48 3.94zM439.95 300.38a5.6 5.6 0 1 0-10.48-3.94 5.6 5.6 0 1 0 10.48 3.94zM520.47 313.54a5.6 5.6 0 1 0-10.48-3.94 5.6 5.6 0 1 0 10.48 3.94zM505.49 307.91a5.6 5.6 0 1 0-10.48-3.94 5.6 5.6 0 1 0 10.48 3.94zM490.51 302.29a5.6 5.6 0 1 0-10.48-3.94 5.6 5.6 0 1 0 10.48 3.94zM475.54 296.66a5.6 5.6 0 1 0-10.49-3.94 5.6 5.6 0 1 0 10.49 3.94z" stroke="#e73635" stroke-width="1.37" stroke-dasharray="2, 2"></path><rect width="330.59999999999997" height="330.59999999999997" clip-path="url(&quot;#SvgjsClipPath1223&quot;)" x="328.44" y="-122.39" fill="url(#SvgjsPattern1224)" transform="rotate(158.49, 493.74, 42.91)"></rect><path d="M499.28 395.46a5.6 5.6 0 1 0 3.44 10.66 5.6 5.6 0 1 0-3.44-10.66zM504.19 410.69a5.6 5.6 0 1 0 3.44 10.66 5.6 5.6 0 1 0-3.44-10.66zM509.1 425.92a5.6 5.6 0 1 0 3.44 10.65 5.6 5.6 0 1 0-3.44-10.65zM514.02 441.14a5.6 5.6 0 1 0 3.44 10.66 5.6 5.6 0 1 0-3.44-10.66z" fill="#037b0b"></path><rect width="240" height="240" clip-path="url(&quot;#SvgjsClipPath1225&quot;)" x="643.58" y="9.38" fill="url(#SvgjsPattern1226)" transform="rotate(215.87, 763.58, 129.38)"></rect><rect width="85" height="85" clip-path="url(&quot;#SvgjsClipPath1227&quot;)" x="533" y="68.66" fill="url(#SvgjsPattern1228)" transform="rotate(167.17, 575.5, 111.16)"></rect><path d="M920.99 348.17L908.26 349.6 904.07 337.5 891.34 338.94 887.15 326.84 874.43 328.27 870.23 316.17M925.26 341.4L912.53 342.84 908.34 330.74 895.61 332.17 891.42 320.07 878.69 321.5 874.5 309.4" stroke="rgba(205, 229, 21, 1)" stroke-width="1" stroke-dasharray="3, 2"></path></g><defs><mask id="SvgjsMask1220"><rect width="1040" height="620" fill="#ffffff"></rect></mask><pattern x="0" y="0" width="159.84" height="6.66" patternUnits="userSpaceOnUse" id="SvgjsPattern1222"><rect width="159.84" height="3.33" x="0" y="0" fill="rgba(205, 229, 21, 1)"></rect><rect width="159.84" height="3.33" x="0" y="3.33" fill="rgba(0, 0, 0, 0)"></rect></pattern><clipPath id="SvgjsClipPath1221"><circle r="39.96" cx="510.94" cy="553.87"></circle></clipPath><pattern x="0" y="0" width="8.7" height="8.7" patternUnits="userSpaceOnUse" id="SvgjsPattern1224"><path d="M0 8.7L4.35 0L8.7 8.7" stroke="#e73635" fill="none"></path></pattern><clipPath id="SvgjsClipPath1223"><circle r="82.64999999999999" cx="493.74" cy="42.91"></circle></clipPath><pattern x="0" y="0" width="6" height="6" patternUnits="userSpaceOnUse" id="SvgjsPattern1226"><path d="M3 1L3 5M1 3L5 3" stroke="#d3b714" fill="none" stroke-width="1.74"></path></pattern><clipPath id="SvgjsClipPath1225"><circle r="60" cx="763.58" cy="129.38"></circle></clipPath><pattern x="0" y="0" width="8.5" height="8.5" patternUnits="userSpaceOnUse" id="SvgjsPattern1228"><path d="M4.25 1L4.25 7.5M1 4.25L7.5 4.25" stroke="rgba(205, 229, 21, 1)" fill="none" stroke-width="1"></path></pattern><clipPath id="SvgjsClipPath1227"><circle r="21.25" cx="575.5" cy="111.16"></circle></clipPath></defs></svg>