<svg xmlns="http://www.w3.org/2000/svg" version="1.1" xmlns:xlink="http://www.w3.org/1999/xlink" xmlns:svgjs="http://svgjs.com/svgjs" width="1920" height="1080" preserveAspectRatio="none" viewBox="0 0 1920 1080"><g mask="url(&quot;#SvgjsMask1068&quot;)" fill="none"><rect width="1920" height="1080" x="0" y="0" fill="#0e2a47"></rect><circle r="15.23" cx="1007.21" cy="282.40000000000003" filter="url(#SvgjsFilter1069)" fill="rgba(51, 121, 194, 0.58)"></circle><circle r="12.16" cx="137.66" cy="712.5699999999999" filter="url(#SvgjsFilter1069)" fill="rgba(51, 121, 194, 0.58)"></circle><circle r="15.595" cx="1164.205" cy="331.165" filter="url(#SvgjsFilter1069)" fill="rgba(51, 121, 194, 0.58)"></circle><circle r="16.74" cx="1763.01" cy="917.84" filter="url(#SvgjsFilter1069)" fill="rgba(51, 121, 194, 0.58)"></circle><circle r="17.545" cx="828.935" cy="100.015" filter="url(#SvgjsFilter1069)" fill="rgba(51, 121, 194, 0.58)"></circle><circle r="11.09" cx="419.35999999999996" cy="915.1600000000001" filter="url(#SvgjsFilter1069)" fill="rgba(51, 121, 194, 0.58)"></circle><circle r="14.39" cx="976.55" cy="162.89" filter="url(#SvgjsFilter1069)" fill="rgba(51, 121, 194, 0.58)"></circle><circle r="9.245" cx="1035.965" cy="984.025" filter="url(#SvgjsFilter1069)" fill="rgba(51, 121, 194, 0.58)"></circle><circle r="12.745" cx="1139.725" cy="801.755" filter="url(#SvgjsFilter1069)" fill="rgba(51, 121, 194, 0.58)"></circle><circle r="16.56" cx="1191.03" cy="295.48" filter="url(#SvgjsFilter1069)" fill="rgba(51, 121, 194, 0.58)"></circle><circle r="17.59" cx="773.0500000000001" cy="811.37" filter="url(#SvgjsFilter1069)" fill="rgba(51, 121, 194, 0.58)"></circle><circle r="15.815" cx="364.535" cy="666.065" filter="url(#SvgjsFilter1069)" fill="rgba(51, 121, 194, 0.58)"></circle><circle r="15.245" cx="178.04500000000002" cy="690.125" filter="url(#SvgjsFilter1069)" fill="rgba(51, 121, 194, 0.58)"></circle><circle r="15.78" cx="633.16" cy="38.57" filter="url(#SvgjsFilter1069)" fill="rgba(51, 121, 194, 0.58)"></circle><circle r="15.425" cx="1380.335" cy="708.495" filter="url(#SvgjsFilter1069)" fill="rgba(51, 121, 194, 0.58)"></circle><circle r="13.85" cx="1494.8799999999999" cy="848.74" filter="url(#SvgjsFilter1069)" fill="rgba(51, 121, 194, 0.58)"></circle><circle r="11.775" cx="1811.605" cy="690.905" filter="url(#SvgjsFilter1069)" fill="rgba(51, 121, 194, 0.58)"></circle><circle r="9.855" cx="1139.015" cy="237.265" filter="url(#SvgjsFilter1069)" fill="rgba(51, 121, 194, 0.58)"></circle><circle r="17.395" cx="917.275" cy="248.925" filter="url(#SvgjsFilter1069)" fill="rgba(51, 121, 194, 0.58)"></circle><circle r="12.525" cx="1922.7150000000001" cy="120.44500000000001" filter="url(#SvgjsFilter1069)" fill="rgba(51, 121, 194, 0.58)"></circle><path d="M1293 998.3L1235.3 962.1 1230.3 937.7 1249.7 950C1251.4 951.9 1253.9 950.8 1255.8 949 1256.4 947.3 1256 944.2 1254.2 943.5L1227.7 926.1 1222 902.4 1245.3 910 1259.8 938.3C1259.8 938.3 1260.4 939 1260.4 939 1261.6 940.2 1264 940.3 1265.8 939.8 1267.7 938.1 1268.4 936.3 1267.3 933.8L1256.6 913.4 1279.9 921 1311.8 980.9C1311.8 980.9 1311.8 982.1 1311.8 982.1 1312.9 983.4 1315.3 983.5 1317.2 983 1319.6 981.9 1320.4 978.9 1318.6 977L1291.2 924.5 1319.8 932.9 1332.2 956.4C1332.2 956.4 1332.2 956.4 1332.7 957 1333.9 958.3 1335.7 959 1337.5 958.4 1339.4 956.7 1340.7 954.3 1339.6 951.9L1331.2 936.4 1352 942.7C1354.4 944 1356.3 942.3 1357 940.5 1358.3 938.1 1357.2 935.7 1354.2 935L1333.9 928.1 1349.3 920.9C1351.2 919.1 1352.5 916.8 1350.8 914.9 1349.7 912.4 1347.9 911.8 1345.4 912.9L1322 925.2 1294 916.2 1347 888.2C1348.9 887.6 1349.6 884.6 1348.5 882.2 1347.3 880.9 1345 879.6 1342.5 880.7L1282.6 912.7 1259.4 905.1 1279.7 894.5C1282.2 893.4 1282.3 890.9 1281.2 888.5 1280.7 886.6 1277.7 885.9 1275.8 886.5L1248 901.6 1224.2 894.6 1242.4 877.8 1273.7 879.1C1276.1 879.2 1278 877.5 1278.1 875.1 1278.8 873.3 1276.5 870.8 1274.1 870.7L1251.2 869.7 1269.4 853 1337.5 856.4C1339.9 856.5 1341.8 854.7 1341.9 852.3 1342 849.9 1340.2 848 1337.8 847.9L1278.2 844.9 1299.5 825.2 1326 826.3C1328.4 826.4 1330.3 824.7 1330.4 822.3 1330.5 819.8 1328.8 818 1326.4 817.9L1308.9 816.5 1324.6 802.1C1326.5 800.4 1326.6 797.9 1324.8 796.1 1323.1 794.2 1320.7 794.1 1318.8 795.8L1303.1 810.3 1303.8 793.4C1303.9 791 1302.2 789.1 1299.8 789S1295.5 790.6 1295.4 793L1294.3 818.4 1272.4 838.6 1274.8 779.5C1274.9 777.1 1273.2 775.2 1270.8 775.1 1268.3 775 1266.5 776.8 1266.4 779.2L1263.6 846.7 1245.4 863.5 1246.3 840.5C1246.4 838.1 1244.7 836.3 1242.3 836.2 1239.9 836.1 1238 837.8 1237.9 840.2L1236.6 871.6 1219 887.7 1213.9 864.6 1230.8 837.5C1231.4 835.7 1230.9 832.7 1229.2 832 1226.8 830.7 1225 831.2 1223.1 833L1210.8 852.4 1205.7 829.2 1241.9 771.5C1243.2 769.2 1242.7 767.3 1241 765.4 1238.6 764.1 1236.1 765.2 1234.9 766.4L1202.6 817 1196.6 787.8 1210.1 766C1212 764.3 1210.9 761.8 1209.2 759.9 1207.4 759.2 1204.4 759.7 1203 762.1L1194 776.2 1188.8 755.5C1188.9 753 1186.6 751.7 1183.5 752.2 1181.7 752.7 1180.4 755.1 1180.9 756.9L1185.5 778.3 1170.8 768.6C1168.4 767.3 1165.9 768.4 1165.3 770.2 1163.4 771.9 1163.9 773.8 1165.1 775 1165.7 775.6 1165.7 775.6 1166.2 776.3L1188 789.8 1194.1 819.1 1144 787.4C1142.3 785.6 1139.8 786.7 1138 788.4 1137.3 790.2 1137.8 792 1139 793.3 1139.5 793.9 1139.5 793.9 1139.5 793.9L1197.2 831.3 1202.3 854.4 1182.9 842.2C1180.5 840.9 1178.7 841.4 1176.8 843.1 1176.1 844.9 1176 847.3 1177.2 848.6 1177.7 849.2 1177.7 849.2 1178.3 849.8L1205.4 866.6 1210.5 889.8 1187.8 882.8 1172.7 855C1171.6 852.6 1168.6 851.9 1166.7 852.4 1164.8 854.1 1163.5 856.5 1165.3 858.4L1175.9 878.7 1152.6 872.3 1120.7 811.2C1120.2 809.4 1117.2 808.7 1115.4 809.2 1113.5 810.9 1112.2 813.3 1113.3 815.8L1140.7 868.2 1112.7 859.2 1101 836.4C1099.8 833.9 1096.9 833.2 1095 834.9 1093.1 835.5 1091.8 837.8 1092.9 840.3L1101.4 855.7 1080.5 849.4C1078.7 848.8 1076.2 849.9 1074.9 852.2 1074.9 853.4 1075.4 855.3 1076.6 856.5 1076.6 856.5 1077.2 857.2 1077.7 857.8L1098.6 864.1 1083.2 872.5C1081.3 873 1080.6 876 1081.1 877.9 1081.7 878.5 1081.7 878.5 1081.7 878.5 1083.5 880.4 1085.9 880.5 1087.1 879.3L1109.9 867.6 1138.6 876 1085.5 904C1083.6 905.7 1082.9 907.5 1084 910 1084 910 1084.6 910.6 1084.6 910.6 1085.8 911.9 1087.6 912.5 1090 911.4L1150.5 880.1 1173.2 887.1 1152.8 897.7C1150.9 899.4 1149.6 901.8 1151.3 903.7 1150.7 904.3 1151.3 904.9 1151.3 904.9 1152.4 906.1 1154.9 906.2 1156.7 905.7L1184.5 890.6 1207.7 898.1 1190.2 914.3 1158.8 913.1C1156.4 913 1153.9 915.3 1153.8 917.7 1154.3 919.5 1156 921.4 1157.8 922.1L1181.4 922.4 1163.2 939.2 1095.6 936.4C1093.2 936.3 1091.3 938.1 1091.2 940.5 1091.2 942.9 1092.9 944.8 1095.3 944.9L1154.4 947.3 1132.4 967.5 1107.1 966.5C1104.7 966.4 1102.8 968.1 1102.7 970.5S1104.3 974.8 1106.7 974.9L1123.6 975.6 1107.9 990.1C1106.1 991.8 1106 994.2 1107.7 996.1 1109.4 998 1111.8 998.1 1113.7 996.4L1129.4 981.9 1129.3 999.4C1129.2 1000.6 1129.2 1001.8 1129.8 1002.4 1130.4 1003.1 1132.1 1003.7 1133.3 1003.8 1135.8 1003.9 1137.6 1002.2 1137.7 999.8L1138.2 973.8 1160.2 953.6 1158.3 1013.3C1158.3 1014.5 1158.2 1015.7 1158.8 1016.3 1159.4 1016.9 1161.2 1017.6 1162.4 1017.7 1164.8 1017.8 1166.7 1016 1166.8 1013.6L1168.9 945.5 1187.1 928.7 1185.6 952.2C1185.5 953.4 1186.7 954.7 1187.3 955.3 1187.8 955.9 1188.4 956.5 1189.6 956.6 1192 956.7 1194.6 954.4 1194 952.5L1195.9 920.6 1213.5 904.4 1219.2 928.2 1201.8 954.7C1201.1 956.5 1201 958.9 1202.2 960.1 1202.7 960.8 1202.7 960.8 1203.4 960.2 1205.1 962.1 1208.1 961.6 1209.5 959.2L1221.7 939.8 1227.4 963.6 1190 1021.2C1189.3 1023 1189.8 1024.8 1191 1026.1 1191.6 1026.7 1191.6 1026.7 1191.6 1026.7 1193.9 1028 1196.4 1028.1 1197.7 1025.8L1229.9 975.2 1236 1004.4 1222.4 1026.2C1221.1 1028.5 1221.6 1030.4 1222.8 1031.6 1222.8 1031.6 1223.4 1032.3 1223.4 1032.3 1225.7 1033.6 1228.2 1032.5 1229.4 1031.3L1238.5 1016 1243.1 1037.3C1243.7 1037.9 1244.2 1038.5 1244.8 1039.2 1245.4 1039.8 1247.2 1040.5 1248.4 1040.5 1250.8 1039.4 1252.7 1037.7 1251.6 1035.2L1247.1 1013.9 1261.8 1023.6C1264.1 1024.9 1266.6 1023.8 1267.8 1022.6 1269.1 1020.2 1268 1017.8 1266.3 1015.9L1244.5 1002.3 1237.8 973.7 1287.9 1005.3C1290.2 1006.6 1293.3 1006.1 1294 1004.4 1295.3 1002 1295.4 999.6 1293 998.3Z" fill="rgba(51, 121, 194, 0.58)"></path><path d="M624.6 729.6L610.7 703.1 628.7 703.1C630.6 703.3 632.7 701.5 633.3 698.9 632.7 696.6 631 694.5 628.7 695.1L606.1 694.3 594.4 674.2 641.4 675.8C643.7 675.3 645.8 673.5 645.9 671.6 645.8 668.6 644.1 666.5 641.7 667.1L589.8 665.4 572.9 634.1 613.4 639.8 589.8 606.4 625.3 607.1 650.6 652.5C650.2 653.2 650.9 653.7 651.6 654.1 653.1 655 655 655.2 656.6 654.2 658.2 653.1 658.8 650.5 658.3 648.2L635.3 607.2 658.5 608.4 669.5 628C669.8 629.2 670.5 629.7 671.3 630.1 672 630.6 673.9 630.7 675.5 629.7 677.1 628.7 677.7 626.1 676.7 624.4L668.5 608.4 698.3 608.6C701 609.2 702.3 607.1 702.9 604.4 703.1 602.5 701.3 600.5 698.3 600.6L668.8 599.7 678.2 584.3C679.5 582.2 678.2 579.4 676.7 578.5 674.6 577.2 672.2 577.7 670.9 579.9L658.9 599.6 635.6 598.4 659.6 559C661 556.9 660.4 554.5 658.2 553.2 656.7 552.3 653.7 552.4 652.3 554.6L625.7 598.3 590.1 597.6 614.6 565.6 574.5 569.1 593.2 538.5 644.4 539.8C647.5 539.6 648.8 537.5 649 535.6 649.1 533.7 647.4 531.6 644.7 531L598.1 530.5 610.1 510.8 633 510.9C635.7 511.5 637.7 509.7 637.6 506.6 637.8 504.7 636 502.7 632.9 502.8L615.4 502.1 630.9 476.6C632.3 474.4 631.7 472.1 629.5 470.7S625 470 623.6 472.2L608.1 497.7 599.4 482.4C598.1 479.6 595.5 479 593.9 480 591.1 481.3 590.5 483.9 592.2 486L602.8 506.4 590.8 526.1 569 484.8C567.2 482.7 564.6 482.1 563 483.1 560.2 484.4 559.6 487.1 561.3 489.1L585.9 534.1 567.2 564.7 552 527.4 534.7 563.9 517.8 532.6 544.5 488.9C545.8 486.7 544.5 483.9 543.1 483 540.9 481.7 538.5 482.2 537.2 484.4L512.8 524.5 501.5 503.6 513.5 484C514.8 481.8 514.3 479.4 512.1 478.1 510.6 477.2 507.6 477.3 506.2 479.5L496.9 494.8 482.6 469.1C481.3 466.3 478.7 465.7 476.6 467.5 475 468.5 473.6 470.7 475.4 472.7L489.3 499.2 471.3 499.2C469.4 499 467.3 500.8 467.1 502.7 467 504.6 468 506.2 468.7 506.6 469.4 507.1 470.2 507.5 471.3 507.2L493.9 508 505.6 528.1 458.6 526.4C456.3 527 454.2 528.8 454.1 530.7 453.9 532.6 454.9 534.2 456.4 535.1 457.1 535.5 457.1 535.5 458.3 535.2L510.2 536.9 527.1 568.2 486.6 562.5 510.2 595.9 474.7 595.2 449.4 549.8C448.4 548.2 446.2 546.8 443.4 548.1 441.8 549.2 441.2 551.8 441.7 554.1L464.7 595.1 441.5 593.9 430.5 574.3C429.9 571.9 427.3 571.3 424.5 572.6 422.9 573.6 422.3 576.2 422.8 578.6L431.5 593.9 401.7 593.7C399 593.1 397.7 595.2 397.1 597.9 397.4 599 398.4 600.7 399.1 601.1 399.8 601.5 400.6 602 401.7 601.7L431.2 602.6 421.8 617.9C420.5 620.1 421.8 622.9 423.2 623.8L423.2 623.8C425.4 625.1 427.8 624.6 429.1 622.4L441.1 602.7 464.4 603.9 440.4 643.3C439 645.4 439.6 647.8 441.8 649.1S446.3 649.9 447.7 647.7L474.3 604 509.9 604.7 485.4 636.7 525.5 633.2 506.8 663.8 455.6 662.5C452.5 662.7 451.2 664.8 451 666.7 450.9 668.6 452.6 670.7 455.3 671.3L501.5 672.5 489.9 691.5 467 691.4C464.3 690.8 462.3 692.6 462.4 695.7 462.2 697.6 464 699.6 466.6 700.2L484.6 700.2 469.1 725.7C467.7 727.9 468.3 730.2 470.5 731.6S475 732.3 476.3 730.1L491.9 704.6 500.6 719.9C500.9 721.1 501.6 721.5 502.3 722 503.8 722.9 504.9 722.6 506.1 722.3 508.9 721 509.5 718.4 507.8 716.3L497.2 695.9 509.2 676.2 531 717.5C531.8 718 532.5 718.4 533.2 718.8 534.7 719.7 535.8 719.4 537 719.2 539.8 717.9 540.4 715.2 538.7 713.2L514.1 668.2 532.8 637.6 548 674.9 565.2 638.4 582.1 669.7 555.5 713.4C554.2 715.6 555.5 718.4 556.9 719.3 559.1 720.6 561.4 720.1 562.8 717.9L586.8 678.5 598.5 698.7 586.5 718.3C585.2 720.5 585.7 722.9 587.9 724.2S592.4 725 593.8 722.8L603.1 707.5 617.4 733.2C617.7 734.4 618.4 734.8 619.1 735.3 619.9 735.7 621.8 735.9 623.4 734.8 625 733.8 626.3 731.6 624.6 729.6ZM548.6 654.3L536.2 623.7 503.4 626.7 523.7 600.1 504.8 573.6 537.4 577.5 551.4 548 563.8 578.6 596.6 575.6 576.8 601.5 595.2 628.7 563 624.1 548.6 654.3Z" fill="rgba(51, 121, 194, 0.58)"></path><path d="M1983.4 552L1957.7 544.2 1970.4 531.4C1971.9 530.2 1972.1 527.5 1970.6 525.2 1968.6 524 1965.9 523.8 1964.4 525L1947.4 541.5 1923.6 534.2 1958.5 501C1960.6 498.7 1960.8 496 1958.7 494.8 1957.3 492.5 1954.6 492.3 1952.5 494.5L1914.1 531.3 1892.4 525.2 1879.9 474.7 1894 460.7 1948.2 477.2C1949 476.9 1949.9 476.7 1950.7 476.5 1951.5 476.3 1953 475.1 1953.6 474.1 1954.6 471.2 1953.2 468.9 1950.5 468.7L1901.1 453.6 1918.9 436.9 1944.3 443.8C1944.6 444.6 1945.4 444.4 1946.2 444.2 1947.9 443.8 1949.3 442.6 1949.7 440.7 1950.2 438.9 1948.7 436.6 1946.6 435.3L1926 429.9 1948 408.6C1949.4 407.4 1949.6 404.7 1948.2 402.4 1946.1 401.2 1943.4 401 1942 402.2L1921.4 422.2 1917.1 404.8C1916.5 402.4 1913.6 401.3 1912 401.7 1909.5 402.3 1907.4 404.6 1908 407.1L1913.5 429.5 1895.7 446.2 1884.2 399.8C1883.6 397.3 1881.6 396.1 1879.1 396.7 1876.6 397.3 1875.3 399.4 1875.9 401.8L1888.6 453.2 1873.9 468.3 1823.7 453.4 1819 434.4 1858 396.6C1860.2 395.2 1860.2 391.7 1858.2 390.4 1856.7 388.1 1854.3 388.7 1852 390.2L1816.5 424.5 1810.6 400.4 1828.4 383.7C1829.8 382.5 1829.9 379 1828.6 377.5S1823.9 376 1821.6 377.5L1808.1 390.5 1800.9 361.5C1800.3 359 1797.4 358 1794.9 358.6 1793.3 359 1791.2 361.3 1791.8 363.8L1799 392.7 1780.2 387.7C1778.3 387.3 1775.8 387.9 1774.8 390.8 1774.4 392.7 1776 395.8 1777.9 396.2L1801.4 402.7 1807.4 426.7 1760 412.9C1757.3 412.7 1754.8 413.3 1753.8 416.2 1753.4 418.1 1755 421.2 1756.9 421.6L1809.8 436.6 1814.5 455.7 1777 492.2 1756.9 485.8 1744.2 434.4C1743.6 431.9 1741.6 430.7 1739.1 431.3 1736.6 431.9 1734.5 434.2 1735.1 436.7L1746.6 483.1 1723 476.6 1717.5 454.2C1716.9 451.7 1714.8 450.5 1712.3 451.1 1709.8 451.7 1708.6 453.8 1709.2 456.3L1713.5 473.7 1686 465.5C1684.1 465.1 1681 466.7 1680.6 468.6 1680.4 471.3 1681 473.8 1683.7 474L1712.2 482.8 1697.3 497C1696.1 499.1 1695.8 501.8 1697.1 503.2 1698.3 504.7 1700.2 505.1 1701.8 504.7 1701.8 504.7 1702.7 504.5 1703.3 503.4L1722.6 485.5 1746.2 492 1709.4 528.3C1707.2 529.7 1706.9 532.4 1709.2 534.5 1710.2 535.1 1711.3 535.7 1712.9 535.3 1713.8 535.1 1714.6 534.9 1715.4 534.7L1755.7 494.9 1774.7 500.7 1787.2 551.2 1770.8 566.7 1719.7 552.1C1716.8 551.1 1714.5 552.5 1714.3 555.2 1713.1 557.3 1714.5 559.5 1717.4 560.6L1763.7 573.7 1746.1 591.3 1723.4 584.6C1721.5 584.2 1719.2 585.6 1718 587.7 1717.8 590.4 1718.4 592.9 1721.1 593.1L1738.2 598.5 1719.1 617.3C1716.9 618.7 1717.5 621.2 1718.9 623.5 1720 624.1 1721.8 624.6 1723.5 624.1 1723.5 624.1 1724.3 623.9 1725.1 623.7L1745.7 603.7 1750.8 624.4C1751.2 626.1 1753.5 628.2 1756 627.5 1758.4 626.9 1759.5 624 1759.1 622.4L1752.7 596.7 1770.4 579.1 1782.9 629.7C1783.5 632.2 1786.4 633.2 1788.8 632.6S1792.6 629.9 1792 627.4L1778.2 571.9 1793.2 557.7 1843.4 572.5 1848.8 594 1808.9 632C1807.7 634.1 1807.5 636.8 1808.9 639.1 1809.9 639.7 1811.8 640.1 1813.5 639.7 1814.3 639.5 1815.1 639.3 1815.7 638.2L1851.2 604 1857.2 628 1839.5 645.6C1838.1 646.8 1837.9 649.5 1839.3 651.8 1841.4 653 1844.1 653.2 1845.5 652L1859.6 637.9 1866.2 664.5C1866.6 666.1 1869.7 668 1871.3 667.6 1873.8 667 1875.7 663.9 1875.3 662.2L1868.7 635.7 1886.9 641.7C1887.8 641.5 1888.6 641.3 1889.4 641.1 1891.1 640.7 1892.5 639.5 1893.1 638.4 1893.4 635.8 1891.9 633.5 1889.8 632.2L1866.3 625.8 1860.3 601.7 1907.7 615.5C1910.6 616.6 1912.9 615.1 1913.3 613.2 1914.3 610.4 1912.9 608.1 1910.8 606.8L1857.9 591.8 1852.5 570.2 1890.1 533.7 1910 539.4 1923.7 594.9C1924.3 597.3 1926.4 598.6 1928.8 598 1931.3 597.4 1932.6 595.3 1932 592.8L1919.5 542.3 1943.2 549.6 1949.6 575.3C1950 576.9 1953.1 578.8 1955.6 578.2 1958.1 577.6 1959.1 574.7 1958.7 573L1953.6 552.3 1981.1 560.4C1981.9 560.2 1981.9 560.2 1982.8 560 1984.4 559.6 1985.9 558.4 1986.5 557.3 1986.7 554.7 1985.3 552.4 1983.4 552ZM1850.1 560.3L1845.7 564 1841 562.6 1800.2 550.7 1795.5 549.2 1794.2 544.2 1784.2 503.6 1783 498.7 1786.5 495.2 1817 465.6 1820.5 462.1 1826.1 463.4 1866 475.5 1871.6 476.8 1872.8 481.7 1882.9 522.3 1884.1 527.3 1879.8 531 1850.1 560.3Z" fill="rgba(51, 121, 194, 0.58)"></path><path d="M1093.1 564.1L1036.3 582 1017.2 571.5 1036.4 565.6C1038.6 565.5 1039.3 563.2 1039.2 561 1038.4 559.5 1036.1 558.1 1034.6 558.9L1008 566.7 988.9 556.9 1007.2 545.8 1034.3 552.2C1034.3 552.2 1035.1 552.2 1035.1 552.2 1036.6 552.1 1038 550.5 1038.7 549 1038.6 546.8 1037.8 545.3 1035.5 544.7L1015.9 540.2 1034.2 529 1092.2 541.7C1092.2 541.7 1093 542.4 1093 542.4 1094.5 542.4 1095.9 540.8 1096.6 539.3 1097.3 537 1095.7 534.8 1093.4 534.9L1042.9 523.4 1064.8 509.1 1087.4 514.2C1087.4 514.2 1087.4 514.2 1088.1 514.2 1089.6 514.1 1091.1 513.3 1091.8 511.8 1091.7 509.6 1090.9 507.4 1088.6 506.7L1073.5 503.6 1089.6 493.2C1091.8 492.4 1091.7 490.2 1090.9 488.7 1090.1 486.5 1087.8 485.8 1085.6 487.4L1069.5 497 1073.5 482.7C1073.4 480.4 1072.5 478.2 1070.3 478.3 1068 477.6 1066.6 478.4 1065.9 480.7L1060.8 503.3 1038.9 516.9 1050.4 465.6C1051.1 464.1 1049.5 461.9 1047.2 461.3 1045.7 461.3 1043.5 462.2 1042.9 464.4L1030.2 522.5 1011.9 533.6 1016.4 514C1017.1 511.8 1015.5 510.3 1013.2 509.7 1011.7 509 1009.5 510.6 1008.9 512.1L1003.2 539.2 985 551.1 984.1 529.5 1002.8 509.3C1004.2 507.8 1004.1 505.5 1002.6 504.1 1001.8 502.6 998.8 502.8 997.3 504.3L983.7 519 982.9 497.4 1023.8 454C1025.2 452.4 1025.1 450.2 1023.6 448.7 1022 447.3 1019.8 447.4 1018.3 448.9L982.5 487 981.5 461.6 997.2 444.5C998.7 443 998.6 440.7 997 439.3 995.5 437.9 993.3 438 991.8 439.5L981 450.4 980.3 431.7C980.2 429.5 978.7 428.1 976.4 428.2 974.2 428.2 972.8 429.8 972.8 432L973.6 450.7 962.7 440.7C961.2 439.2 958.9 439.3 957.5 440.9S956.2 444.6 957.7 446.1L974 461.1 975 487.2 937 452.1C935.5 450.7 933.2 450.8 931.8 452.3 930.4 453.9 930.4 456.1 932 457.5L975.4 497.7 976.3 519.3 961.5 505.7C960 504.3 957.7 504.4 956.3 505.9 954.9 507.5 955 509.7 956.5 511.1L976.7 529.8 977.5 550.7 959.2 540.9 950.7 514.4C949.9 512.9 947.6 511.5 946.1 512.3 943.9 513.1 943.2 514.6 943.3 516.9L949.3 536.1 931 526.3 913 469.5C912.2 467.3 910.7 466.6 908.4 466.7 906.2 467.5 905.6 469.8 905.6 471.3L921.1 521.5 898.1 508.9 891.3 487.5C891.2 485.3 889 484.6 886.7 484.7 885.3 485.5 883.9 487.8 884.7 490L889 504.1 872.2 495.8C870.7 494.3 868.5 495.2 867.1 497.4 866.4 499 867.2 501.2 868.7 501.9L885.5 510.9 870.7 515.2C868.5 516.1 867.9 518.3 868.7 519.8 868.8 522 870.3 522.7 871.8 522.7 872.5 522.6 872.5 522.6 873.3 522.6L894.7 515.8 917.6 528.4 868.1 543.7C865.9 543.8 865.2 546.1 865.3 548.3 866.1 549.8 867.6 550.5 869.1 550.4 869.9 550.4 869.9 550.4 869.9 550.4L927.5 533.2 945.8 542.9 926.6 548.9C924.4 549.8 923.7 551.3 923.8 553.5 924.6 555 926.2 556.4 927.6 556.4 928.4 556.3 928.4 556.3 929.1 556.3L955.7 547.8 974 557.5 956.5 568.7 929.4 563C927.1 562.4 925 563.9 924.3 565.5 924.4 567.7 925.2 569.9 927.4 569.8L947 574.3 929.6 586.2 870.8 572.8C869.2 572.1 867 573.7 866.4 575.2 866.4 577.4 867.3 579.6 869.6 580.3L920.1 591.8 898.2 605.3 876.3 600.2C874 599.5 871.9 601.1 871.9 603.4 871.3 604.9 872.1 607.1 874.4 607.8L889.4 610.9 873.4 621.2C871.9 622 871.3 624.3 872.1 626.5 872.9 627.2 874.4 627.9 875.9 627.9 875.9 627.9 876.6 627.8 877.4 627.8L893.4 617.5 890.3 632.5C889.6 634.1 891.2 636.2 892.7 636.9 893.4 636.9 893.4 636.9 893.4 636.9 895.7 636.8 897.1 635.3 897 633.8L902.2 611.9 924 597.6 912.6 648.9C912.7 651.1 913.5 652.6 915.7 653.2 915.7 653.2 916.5 653.2 916.5 653.2 918 653.1 919.4 652.3 920.1 650.1L933.5 592 951 580.8 946.6 600.4C946.6 602.7 947.5 604.9 949.7 604.8 949.7 605.6 950.5 605.5 950.5 605.5 952 605.5 953.4 603.9 954.1 602.4L959.8 575.3 978 564.1 978.8 585 960.2 605.1C958.8 606.7 958.9 609.7 960.4 611.1 961.9 611.8 964.2 611.7 965.6 610.9L979.2 595.4 980.1 617.1 939.9 660.5C938.5 662 938.6 664.3 940.1 665.7 941.7 667.1 943.9 667.1 945.4 665.5L980.5 627.5 981.5 653.6 966.5 669.9C965 671.5 965.1 673.7 966.7 675.1S970.5 676.5 971.9 674.9L981.9 664.1 982.7 682.7C982.7 685 984.3 686.4 986.5 686.3 988.8 686.2 990.2 684.7 990.1 682.4L989.4 663.8 1001 673.8C1001.8 674.5 1002.5 675.2 1003.3 675.2 1004 675.2 1005.5 674.4 1006.2 673.6 1007.6 672 1007.6 669.8 1006 668.4L989 653.3 988 627.2 1026.7 662.3C1027.5 663 1028.2 663.8 1029 663.7 1029.7 663.7 1031.2 662.9 1031.9 662.1 1033.3 660.6 1033.3 658.3 1031.7 656.9L987.5 616.8 986.7 595.1 1001.5 609.5C1002.2 610.2 1003.7 610.2 1004.5 610.1 1005.2 610.1 1006 610.1 1006.7 609.3 1008.1 607.8 1008 604.8 1006.5 604.1L986.3 584.7 985.5 563.8 1004.5 573.5 1012.3 600.1C1013.1 601.6 1014.7 603 1016.1 603 1016.9 602.9 1016.9 602.9 1016.9 602.2 1019.1 602.1 1020.5 599.8 1019.7 597.6L1013.7 578.4 1032.8 588.1 1050 645.7C1050.8 647.2 1052.3 647.9 1053.8 647.8 1054.5 647.8 1054.5 647.8 1054.5 647.8 1056.7 646.9 1058.2 645.4 1057.3 643.2L1041.9 593 1064.8 605.5 1071.6 626.9C1072.5 629.1 1074 629.8 1075.5 629.8 1075.5 629.8 1076.2 629.7 1076.2 629.7 1078.4 628.9 1079.1 626.6 1079 625.2L1074 610.4 1090.8 619.5C1091.5 619.4 1092.3 619.4 1093 619.4 1093.8 619.3 1095.2 618.5 1095.9 617.8 1096.6 615.5 1096.5 613.3 1094.2 612.6L1077.4 603.5 1092.2 599.2C1094.4 598.4 1095.1 596.1 1095 594.6 1094.2 592.4 1091.9 591.8 1089.7 591.9L1068.3 598.7 1045.4 586.9 1094.9 571.5C1097.1 570.6 1098.5 568.4 1097.7 566.9 1096.8 564.7 1095.3 563.2 1093.1 564.1Z" fill="rgba(51, 121, 194, 0.58)"></path><path d="M1433.9 679.4L1410.9 621.9 1433.1 571.3 1465.8 615.7 1456.2 676.9C1456.2 676.9 1456.2 677.7 1456.2 677.7 1456.4 679.1 1458.1 680.5 1459.6 681 1461.9 681.5 1464 679.8 1463.7 677.6L1472 624.1 1488 645.6 1484.6 669.2C1484.6 669.2 1484.7 670 1484.7 670 1484.8 671.5 1486.5 672.8 1488.1 673.3 1490.4 673.8 1492.4 672.1 1492.2 669.9L1494.9 653.8 1506.5 669.8C1507.4 671.2 1510.4 671.6 1511.8 670.7 1514 669.7 1513.6 666.7 1512.7 665.3L1501.2 649.3 1517.2 652.1C1519.5 652.5 1521.6 650.8 1521.4 648.6 1521.9 646.3 1520.1 644.2 1517.9 644.5L1494.2 641.1 1479 619.5 1532.6 627.8C1534.9 628.3 1536.9 626.6 1536.7 624.3 1537.2 622 1535.4 620 1533.2 620.2L1472 610.5 1439.3 566.1 1494.9 559.9 1543.6 598.8C1545.2 600.1 1547.5 599.8 1548.8 598.2 1550.1 596.5 1549.9 594.3 1548.2 593L1505.3 558.7 1532 555.7 1550.2 570.2C1551.8 571.6 1554 571.3 1555.4 569.7 1556.7 568 1556.4 565.8 1554.8 564.5L1542.4 554.6 1563.2 552.3C1565.5 552.7 1566.7 550.4 1566.5 548.1 1566.2 545.9 1564.6 544.6 1562.4 544.8L1543.1 547 1552.9 534.6C1554.3 533 1554 530.7 1552.4 529.4S1548.5 528.3 1547.2 530L1532.7 548.1 1506 551.1 1540.2 508.2C1541.5 506.6 1541.3 504.4 1539.6 503 1538 501.7 1535.8 502 1534.5 503.6L1495.6 552.3 1440.7 558.4 1462.8 507.9 1518.9 485.8C1521.1 484.8 1521.6 482.5 1521.3 480.3 1520.3 478.2 1518 477.7 1515.8 477.9L1465.4 497.8 1476.2 473.3 1498.6 464.8C1500.7 463.8 1501.2 461.5 1500.9 459.3 1500 457.1 1497.6 456.6 1496.2 456.8L1481.1 463 1488.8 444.9C1489.4 443.3 1489.1 440.3 1486.7 439.8 1484.4 439.3 1482.2 439.6 1481.7 441.9L1474 460 1467.8 445C1466.8 442.8 1464.5 442.3 1463 442.5 1461.6 443.4 1460.3 445 1460.5 446.5 1460.5 446.5 1460.5 447.3 1460.5 447.3L1469 469.6 1458.3 494.1 1438.4 443.7C1437.4 441.6 1435.1 441.1 1433.6 441.3 1432.2 442.2 1430.8 443.8 1431 445.3 1431 445.3 1431.1 446.1 1431.1 446.1L1454.1 503.6 1431.9 554.2 1399.1 509.7 1408.8 448.5C1409.3 446.2 1407.6 444.2 1405.4 444.4 1403.1 443.9 1401 445.7 1401.2 447.9L1393 501.4 1377 479.9 1380.4 456.2C1380.9 453.9 1379.2 451.9 1376.9 452.1 1374.6 451.6 1372.6 453.4 1372.8 455.6L1370.1 471.7 1358.5 455.7C1357.6 454.3 1354.6 453.9 1353.2 454.8 1351.8 455.7 1351.2 457.2 1351.4 458.7 1351.5 459.5 1351.5 460.2 1352.4 460.9L1363.9 476.9 1347.8 474.2C1345.5 473.7 1343.5 475.4 1343.7 477.6 1343.7 477.6 1343.8 478.4 1343.8 478.4 1344 479.8 1345.6 481.2 1347.2 481.7L1370.8 485.1 1386.8 506.6 1333.3 498.3C1330.9 497.8 1328.9 499.6 1329.1 501.8 1329.1 501.8 1329.2 502.5 1329.2 502.5 1329.4 504 1331 505.3 1332.6 505.9L1393.8 515.6 1426.6 560 1371.6 566.2 1323 527.3C1321.3 526 1319.1 526.2 1317.8 527.8 1316.5 529.5 1316.7 531.7 1318.4 533L1360.5 567.4 1333.8 570.4 1315.7 555.9C1314 554.6 1311.8 554.8 1310.5 556.5S1309.4 560.3 1311 561.7L1323.4 571.5 1304.1 573.7C1301.9 574 1300.6 575.6 1300.8 577.8 1301.1 580.1 1302.7 581.4 1305 581.1L1324.2 579 1314.4 591.3C1313.7 592.2 1313 593 1313.2 594.5S1314.2 596.6 1315 597.3C1316.7 598.6 1318.9 598.3 1320.2 596.7L1334.7 578.5 1361.4 575.6 1327.2 618.5C1326.5 619.3 1325.8 620.1 1326 621.6 1326.1 622.3 1327 623.7 1327.8 624.4 1329.5 625.7 1331.7 625.5 1333 623.8L1371.9 575.1 1426.8 569 1404.7 619.6 1347.1 642.5C1345.7 643.4 1344.4 645.1 1344.6 646.6 1344.6 646.6 1344.7 647.3 1344.7 647.3 1345.6 649.5 1348 649.9 1349.4 649.8L1399.8 629.9 1389 654.4 1366.7 662.9C1365.3 663.8 1364 665.4 1364.1 666.9 1364.1 666.9 1364.2 667.7 1364.2 667.7 1365.2 669.8 1367.5 670.3 1369 670.1L1384.1 663.9 1376.3 682.1C1376.4 682.8 1375.8 683.7 1375.9 684.4 1376 685.9 1376.9 687.3 1378.5 687.9 1380.8 688.3 1383 688.1 1383.5 685.8L1391.3 667.6 1397.5 682.7C1398.4 684.9 1400.8 685.4 1402.2 685.2 1404.4 684.2 1404.9 681.9 1404.7 680.4L1396.2 658.1 1407 633.6 1426.9 683.9C1427.9 686.1 1430.2 686.6 1431.7 686.4 1433.7 683.9 1434.9 681.5 1433.9 679.4Z" fill="rgba(51, 121, 194, 0.58)"></path><path d="M1431.4 974.2L1440 984.4 1431.2 986.3C1430.2 986.4 1429.4 987.5 1429.4 988.8 1429.9 989.9 1431 990.7 1431.9 990.6L1443.6 988.4 1451.5 998 1427.8 1002.3C1426.3 1002.7 1425.4 1003.7 1426 1004.8 1425.9 1006.2 1427 1007 1428.5 1006.6L1454.6 1001.9 1462 1010.4 1453.3 1034.9 1443.5 1036.9 1425.5 1015.1C1425.1 1014.9 1424.7 1014.8 1424.3 1014.6 1423.9 1014.5 1422.9 1014.6 1422.4 1014.9 1421.1 1015.8 1421.1 1017.1 1422.2 1018L1438.6 1037.9 1426.6 1039.9 1417.9 1030C1418 1029.6 1417.6 1029.5 1417.2 1029.3 1416.4 1029 1415.5 1029.2 1414.8 1029.8 1414.1 1030.5 1414.1 1031.8 1414.6 1032.9L1421.7 1040.9 1406.7 1043.7C1405.7 1043.8 1404.9 1044.9 1404.9 1046.2 1405.4 1047.3 1406.4 1048.1 1407.4 1048L1421.5 1045.3 1418.5 1053.8C1418 1055 1419 1056.2 1419.8 1056.5 1421 1056.9 1422.5 1056.6 1422.9 1055.4L1426.8 1044.5 1438.8 1042.5 1430.8 1065C1430.4 1066.2 1430.9 1067.3 1432.1 1067.7 1433.3 1068.1 1434.4 1067.6 1434.8 1066.4L1443.7 1041.5 1454 1039.3 1470.9 1059.3 1467.6 1068.5 1440.9 1073.5C1439.5 1073.5 1438.5 1075 1439.1 1076.1 1439 1077.4 1440.2 1077.8 1441.6 1077.9L1465.8 1073.4 1461.7 1085 1449.6 1087.1C1448.7 1087.2 1447.7 1088.7 1447.8 1089.6S1449.4 1091.5 1450.8 1091.6L1460 1089.9 1455 1103.9C1454.5 1105.1 1455.4 1106.4 1456.7 1106.8 1457.5 1107.1 1459 1106.7 1459.4 1105.5L1464.4 1091.4 1470.9 1098.7C1471.5 1099.4 1472.7 1099.8 1474 1098.9 1474.6 1098.2 1474.8 1096.5 1474.2 1095.8L1466.1 1086.6 1470.3 1074.9 1486.2 1093.8C1487.3 1094.6 1488.5 1095 1489.7 1094.1 1490.4 1093.4 1490.6 1091.7 1489.9 1091L1472 1070.1 1475.3 1060.9 1501 1056 1507.6 1064.2 1498.7 1089.2C1498.3 1090.4 1498.8 1091.5 1500 1091.9 1501.2 1092.3 1502.7 1091.9 1503.1 1090.7L1511.2 1068.2 1519.2 1077.4 1515.3 1088.3C1514.9 1089.5 1515.4 1090.6 1516.6 1091 1517.8 1091.4 1518.9 1090.9 1519.4 1089.7L1522.4 1081.3 1531.6 1092.3C1532.2 1093 1534 1093.1 1534.7 1092.5 1535.5 1091.4 1535.9 1090.2 1534.9 1089.4L1525.4 1077.8 1535.6 1076C1536.6 1075.5 1537.5 1074.4 1537.4 1073.5 1537.2 1072.5 1536.6 1071.9 1535.8 1071.6 1535.8 1071.6 1535.4 1071.4 1534.8 1071.7L1521.8 1073.8 1513.8 1064.6 1539.1 1059.6C1540.5 1059.7 1541.3 1058.6 1540.9 1057.1 1540.7 1056.6 1540.4 1056 1539.6 1055.7 1539.2 1055.6 1538.8 1055.4 1538.4 1055.3L1510.6 1060.8 1504.3 1053.1 1513 1028.6 1524.2 1026.7 1541.4 1046.9C1542.3 1048.1 1543.7 1048.1 1544.5 1047.1 1545.6 1046.5 1545.6 1045.2 1544.7 1044L1529 1025.7 1541.2 1023.2 1548.9 1032.3C1549.5 1033 1550.9 1033 1552 1032.5 1552.8 1031.4 1553.2 1030.2 1552.2 1029.4L1546.5 1022.4 1559.7 1019.8C1561 1019.9 1561.4 1018.7 1561.5 1017.3 1561.2 1016.8 1560.5 1016.1 1559.7 1015.8 1559.7 1015.8 1559.3 1015.6 1558.9 1015.5L1544.8 1018.2 1548.4 1008.1C1548.7 1007.3 1548.3 1005.8 1547.1 1005.4 1545.9 1005 1544.7 1005.9 1544.4 1006.7L1540 1019.2 1527.8 1021.6 1536.5 997.1C1536.9 995.9 1536 994.6 1534.8 994.2S1532.5 994.3 1532.1 995.5L1522.5 1022.4 1512.3 1024.3 1495.5 1004.2 1499.2 993.8 1526.3 988.9C1527.4 988.4 1528.2 987.3 1528.2 986 1528 985.4 1527.3 984.8 1526.5 984.5 1526.1 984.3 1525.7 984.2 1525.2 984.4L1500.9 988.9 1505.1 977.3 1517.3 974.8C1518.2 974.7 1519 973.7 1519.1 972.3 1518.5 971.2 1517.5 970.4 1516.5 970.5L1506.8 972.5 1511.4 959.6C1511.6 958.8 1510.9 957.2 1510.1 956.9 1508.9 956.4 1507.2 957.2 1506.9 958L1502.4 970.9 1496.4 963.3C1496 963.2 1495.6 963.1 1495.2 962.9 1494.4 962.6 1493.5 962.7 1492.9 963 1492.1 964.1 1492.1 965.4 1492.6 966.5L1500.6 975.7 1496.5 987.4 1480.5 968.5C1479.6 967.3 1478.3 967.3 1477.6 967.9 1476.4 968.9 1476.3 970.2 1476.8 971.3L1494.8 992.2 1491 1002.6 1465.3 1007.5 1458.6 999.7 1468.2 972.7C1468.6 971.5 1468.1 970.4 1466.9 970 1465.7 969.6 1464.6 970.1 1464.2 971.3L1455.4 995.8 1447.5 986.2 1452 973.8C1452.2 973 1451.5 971.3 1450.3 970.9 1449.1 970.5 1447.8 971.4 1447.5 972.2L1444 982.2 1434.7 971.2C1434.3 971.1 1434.3 971.1 1433.9 971 1433.1 970.7 1432.2 970.8 1431.6 971.1 1430.8 972.1 1430.8 973.5 1431.4 974.2ZM1489.3 1007.5L1492.2 1007.1 1493.7 1009 1507.5 1025.2 1509 1027.2 1508.2 1029.6 1501.2 1049.3 1500.3 1051.7 1497.9 1052.2 1477 1056.1 1474.6 1056.5 1472.6 1054.5 1459.3 1038.4 1457.3 1036.4 1458.1 1033.9 1465.2 1014.2 1466 1011.8 1468.9 1011.5 1489.3 1007.5Z" fill="rgba(51, 121, 194, 0.58)"></path><path d="M1817.5 1027.1L1785.5 1042 1776.3 1038.9 1772.4 1017.5 1779.9 1011 1815.2 1014.1C1815.6 1014 1815.6 1014 1816 1014 1816.9 1013.8 1817.6 1013.3 1817.8 1011.9 1817.6 1010.7 1817 1009.9 1815.7 1009.7L1784.9 1007 1796.5 997.1 1810.1 998.1C1810.1 998.1 1810.6 998.1 1810.6 998.1 1811.4 997.9 1812.2 997.3 1812.4 996 1812.6 995.1 1811.6 994 1810.2 993.8L1801.4 992.8 1810 985.6C1810.8 985 1811 983.7 1810.3 982.5S1808 981.6 1806.8 982.2L1798.6 989.4 1799.2 980.6C1799.4 979.3 1798.3 978.2 1797 978 1796.1 978.1 1794.9 978.8 1794.7 980.1L1793.7 993.7 1781.7 1003.7 1784.3 972.9C1784.5 971.5 1783.5 970.4 1782.5 970.2 1781.3 970.4 1780.1 971 1779.9 972.4L1777.2 1007.6 1769.2 1014.2 1749.3 1006.9 1747.5 996.9 1767.4 967.7C1768 966.7 1767.8 965.4 1766.8 964.8S1764.6 964.3 1763.9 965.3L1746.4 991 1743.6 975.5 1751.2 964.5C1751.9 963.6 1751.6 962.3 1750.6 961.2S1748.3 960.7 1747.6 961.7L1742.6 969.6 1740.5 958.2C1740.3 957 1738.9 956.4 1737.6 956.6 1736.3 956.8 1735.7 957.8 1735.9 959.1L1737.9 970.4 1730.5 965.2C1729.4 964.1 1728.2 964.4 1727.6 965.8 1726.9 966.8 1727.1 968 1728.1 968.7L1739 976.3 1741.8 991.8 1716.4 973.8C1715.5 973.2 1713.8 973.5 1713.1 974.5S1712.6 976.7 1713.6 977.4L1742.9 997.7 1744.7 1007.8 1728.1 1021.6 1718.8 1018.1 1703.9 986.1C1703.3 984.9 1701.9 984.7 1700.7 984.9 1699.5 985.6 1699.3 986.9 1699.5 988.2L1712.8 1016.1 1698.4 1010.9 1692.7 998.5C1692.1 997.3 1690.7 997.1 1689.5 997.4 1688.7 997.9 1688.1 999.3 1688.7 1000.5L1692.4 1008.5 1681.7 1004.8C1680.8 1004.6 1679.6 1005.2 1678.9 1006.2 1678.7 1007.5 1679.4 1008.7 1680.3 1009L1690.9 1012.7 1682.6 1016.8C1681.8 1017.4 1681.2 1018.8 1681.8 1019.6 1682 1020.8 1682.9 1021.1 1684.2 1020.9 1684.2 1020.9 1684.6 1020.8 1684.6 1020.8L1697 1015.1 1711.4 1020.3 1683.4 1033.6C1682.2 1034.2 1681.6 1035.2 1682.2 1036.4 1682.9 1037.6 1683.8 1037.8 1684.6 1037.7 1685 1037.6 1685 1037.6 1685 1037.6L1717.4 1022.2 1726.7 1025.8 1730.5 1047.2 1723 1053.3 1687.4 1050.6C1686.5 1050.4 1685.4 1051.4 1685.1 1052.3 1684.9 1053.7 1686 1054.8 1687.3 1055L1718.1 1057.7 1706.5 1067.6 1692.9 1066.6C1691.5 1066.4 1690.3 1067 1690.6 1068.3 1690.4 1069.6 1691.4 1070.7 1692.3 1071L1701.5 1071.5 1692.9 1078.7C1692.2 1079.7 1692 1081 1692.6 1082.2 1693.1 1082.5 1694.1 1082.8 1694.9 1082.7 1695.3 1082.6 1695.3 1082.6 1695.7 1082.1L1704.3 1074.9 1703.8 1084.1C1703.6 1085.4 1704.6 1086.1 1705.5 1086.4 1706 1086.3 1706 1086.3 1706.4 1086.2 1707.2 1086.1 1708 1085.5 1708.2 1084.6L1709.3 1071 1720.9 1061.1 1718.2 1091.9C1718.5 1093.1 1719.1 1094.3 1720.4 1094.1 1720.9 1094.4 1720.9 1094.4 1721.3 1094.4 1722.1 1094.2 1722.8 1093.2 1723.1 1092.3L1725.8 1056.7 1733.3 1050.6 1753.7 1057.7 1755.4 1067.4 1735.1 1096.6C1734.4 1097.6 1734.7 1099.3 1735.7 1100S1738.4 1100.4 1739.1 1099.4L1756.6 1073.7 1759.3 1088.8 1751.8 1100.1C1751.1 1101.1 1751.3 1102.4 1752.3 1103.1 1753.3 1103.8 1754.6 1103.5 1755.3 1102.5L1760.4 1095.1 1762.5 1106.4C1762.6 1107.3 1763.7 1108.4 1765 1108.2 1766.2 1107.9 1767.3 1106.5 1767.1 1105.6L1765.1 1094.3 1772.5 1099.4C1773 1099.8 1773.5 1100.1 1773.9 1100.1 1774.7 1099.9 1775.1 1099.4 1775.4 1098.9 1776.1 1097.9 1775.9 1096.7 1774.9 1096L1763.9 1088 1761.2 1072.9 1786.5 1090.8C1787 1091.2 1787.5 1091.1 1788.3 1090.9 1788.7 1090.9 1789.1 1090.8 1789.5 1090.3 1790.2 1089.3 1789.9 1087.6 1788.9 1086.9L1760.1 1066.6 1758.3 1056.9 1774.5 1043.2 1784.1 1046.2 1799.1 1078.6C1799.7 1079.4 1800.6 1080.1 1801.5 1079.9 1801.9 1079.8 1801.9 1079.8 1801.8 1079.4 1803.1 1079.2 1803.7 1077.8 1803.1 1076.6L1789.8 1048.6 1804.6 1053.8 1810.3 1066.2C1810.8 1066.9 1811.8 1067.2 1812.6 1067.1 1812.6 1067.1 1813 1067 1813 1067 1814.3 1066.8 1814.9 1065.3 1814.2 1064.2L1810.1 1055.8 1820.8 1059.5C1821.3 1059.9 1821.7 1059.8 1822.1 1059.7 1823 1059.5 1823.7 1059 1823.6 1058.6 1824.3 1057.1 1823.6 1056 1822.6 1055.3L1812 1051.6 1820 1047.9C1821.2 1047.3 1821.8 1045.9 1821.1 1044.7 1820.6 1043.9 1819.2 1043.3 1818.4 1043.9L1806 1049.6 1791.6 1044.4 1819.6 1031.1C1820.7 1030.5 1820.9 1029.1 1820.7 1027.9 1820.1 1027.1 1818.7 1026.5 1817.5 1027.1ZM1768.3 1020.9L1771.2 1037.2 1771.7 1039.8 1769.8 1041.4 1757.4 1051.9 1755.1 1053.6 1752.8 1052.7 1737.5 1047.2 1735.2 1046.3 1734.7 1043.8 1731.8 1027.4 1731.3 1024.9 1733.2 1023.3 1745.6 1012.8 1747.5 1011.2 1750.2 1012 1765.5 1017.5 1767.8 1018.3 1768.3 1020.9Z" fill="rgba(51, 121, 194, 0.58)"></path><path d="M1813.2 140.4L1841.8 119.6 1872.9 124.8 1852.9 149.2 1817.7 152.4C1817.7 152.4 1817.3 152.5 1817.3 152.5 1816.5 152.8 1816 153.9 1815.9 154.9 1815.9 156.2 1817.2 157.1 1818.4 156.7L1849.2 153.8 1839.5 165.6 1825.9 167.1C1825.9 167.1 1825.5 167.2 1825.5 167.2 1824.7 167.5 1824.2 168.6 1824.1 169.6 1824.1 170.9 1825.4 171.8 1826.6 171.4L1835.9 170.6 1828.6 179.3C1828 180 1828.2 181.7 1828.9 182.4 1829.7 183.4 1831.3 182.8 1832 182.1L1839.2 173.5 1840 182.8C1840 184.1 1841.3 185 1842.5 184.6 1843.8 184.5 1844.7 183.3 1844.3 182.1L1842.8 168.5 1852.7 157 1855.6 187.9C1855.6 189.2 1856.8 190.1 1858 189.6 1859.4 189.6 1860.3 188.4 1859.8 187.2L1856.7 151.9 1876.7 127.5 1887.9 157.5 1873.2 189.9C1872.7 191 1873.1 192.2 1874.2 192.7 1875.3 193.2 1876.5 192.8 1877 191.7L1890 163.1 1895.4 177.5 1889.9 189.6C1889.4 190.7 1889.9 191.9 1891 192.4 1892.1 192.9 1893.3 192.4 1893.8 191.3L1897.5 183.1 1901.7 194.3C1901.7 195.6 1903.2 196 1904.4 195.5 1905.6 195.1 1906.1 194 1905.7 192.8L1901.8 182.4 1910 186.1C1911.1 186.6 1912.3 186.2 1912.8 185.1S1912.9 182.8 1911.8 182.3L1899.7 176.8 1894.3 162.4 1922.9 175.4C1924 175.9 1925.2 175.4 1925.7 174.3 1926.2 173.2 1925.7 172 1924.6 171.5L1892.2 156.8 1881.1 127.2 1912.2 132.4 1932.3 160.5C1933.2 161.5 1934.5 161.5 1935.7 161 1936.8 160.2 1936.7 158.8 1936.3 157.6L1918.2 132.5 1933.3 135 1941.1 146.2C1942 147.3 1943.3 147.2 1944.5 146.8 1945.5 145.9 1945.5 144.6 1945.2 143.8L1939.7 136.3 1950.8 138C1951.7 138.1 1953.3 137.5 1953.3 136.2 1953.2 134.8 1952.8 133.6 1951.4 133.7L1940.3 131.9 1947.8 126.4C1948.9 125.6 1948.8 124.2 1948.5 123.4 1947.8 122.8 1946.7 122.3 1945.9 122.6 1945.9 122.6 1945.5 122.7 1945.5 122.7L1934.3 130.5 1919.2 128 1944.4 109.9C1945.4 109.1 1945.4 107.7 1945.1 106.9 1944.4 106.3 1943.3 105.8 1942.5 106.1 1942.5 106.1 1942.1 106.2 1942.1 106.2L1913.4 127 1882.3 121.8 1902.3 97.4 1937.6 94.2C1938.9 94.2 1939.8 92.9 1939.4 91.7 1939.3 90.4 1938.1 89.5 1936.9 89.9L1906.1 92.8 1915.8 81 1929.3 79.6C1930.7 79.5 1931.6 78.3 1931.1 77.1 1931.1 75.7 1929.8 74.8 1928.6 75.3L1919.4 76 1926.6 67.4C1927.2 66.7 1927 64.9 1926.3 64.3 1925.6 63.6 1924.7 63.5 1923.9 63.8 1923.5 64 1923.1 64.1 1922.9 64.7L1915.6 73.3 1914.9 64C1914.8 62.7 1913.6 61.8 1912.4 62.2 1912.4 62.2 1912 62.4 1912 62.4 1911.2 62.7 1910.7 63.8 1910.6 64.7L1912 78.3 1902.3 90.1 1899.4 59.3C1899.4 58 1898.1 57.1 1896.9 57.5 1896.9 57.5 1896.5 57.7 1896.5 57.7 1895.7 58 1895.2 59.1 1895.1 60L1898.3 95.3 1878.3 119.6 1867.2 90.1 1882 57.7C1882.5 56.6 1882 55.4 1880.9 54.9 1879.8 54.4 1878.6 54.8 1878.1 55.9L1865 84.1 1859.6 69.7 1865.1 57.6C1865.6 56.5 1865.1 55.3 1864 54.8S1861.7 54.8 1861.2 55.9L1857.5 64.1 1853.6 53.7C1853.1 52.5 1852 52 1850.8 52.5 1849.6 52.9 1849.1 54 1849.6 55.2L1853.5 65.6 1845.2 61.9C1844.7 61.6 1844.1 61.4 1843.4 61.7S1842.3 62.5 1842.1 63.1C1841.6 64.2 1842 65.4 1843.1 65.8L1855.2 71.3 1860.6 85.7 1832 72.7C1831.5 72.5 1830.9 72.2 1830.1 72.5 1829.7 72.7 1829.1 73.4 1828.8 73.9 1828.3 75 1828.8 76.2 1829.9 76.7L1862.3 91.5 1873.3 121 1842.2 115.8 1821.5 87.2C1820.8 86.5 1819.7 86 1818.9 86.3 1818.9 86.3 1818.5 86.5 1818.5 86.5 1817.4 87.3 1817.5 88.7 1817.8 89.5L1835.8 114.6 1820.8 112 1812.9 100.8C1812.2 100.2 1811.1 99.7 1810.3 100 1810.3 100 1809.9 100.1 1809.9 100.1 1808.9 101 1808.9 102.3 1809.2 103.1L1814.8 110.6 1803.6 108.9C1803.2 109 1802.7 108.8 1802.3 108.9 1801.5 109.2 1800.8 109.9 1800.7 110.9 1800.8 112.2 1801.2 113.4 1802.6 113.4L1813.7 115.1 1806.2 120.7C1805.2 121.5 1805.2 122.9 1805.5 123.7 1806.4 124.7 1807.7 124.7 1808.5 124.4L1819.7 116.5 1834.8 119.1 1809.7 137.2C1808.6 138 1808.7 139.3 1809 140.1 1810.6 140.9 1812.1 141.2 1813.2 140.4Z" fill="rgba(51, 121, 194, 0.58)"></path><path d="M137.1 309.6L173.9 331 177.6 346.1 165.2 338.9C164.1 337.7 162.6 338.5 161.4 339.6 161 340.7 161.4 342.6 162.5 343L179.4 353.3 183.5 368.1 168.8 363.8 159.1 346.4C159.1 346.4 158.7 346 158.7 346 158 345.2 156.5 345.2 155.3 345.6 154.2 346.7 153.8 347.8 154.6 349.4L161.6 361.9 147 357.6 125.7 320.9C125.7 320.9 125.7 320.1 125.7 320.1 125 319.3 123.5 319.3 122.4 319.7 120.8 320.4 120.4 322.3 121.6 323.5L139.8 355.7 121.7 351 113.6 336.6C113.6 336.6 113.6 336.6 113.2 336.2 112.4 335.5 111.3 335.1 110.2 335.5 109 336.6 108.3 338.1 109 339.6L114.6 349.1 101.4 345.6C99.9 344.8 98.8 345.9 98.4 347.1 97.6 348.6 98.4 350.1 100.2 350.5L113 354.3 103.6 359.2C102.4 360.3 101.7 361.8 102.8 362.9 103.5 364.4 104.7 364.8 106.2 364.1L120.6 355.9 138.3 360.9 105.7 379.5C104.6 379.9 104.2 381.8 104.9 383.3 105.7 384.1 107.2 384.8 108.7 384.1L145.4 362.9 160.1 367.1 147.6 374.2C146.1 374.9 146.1 376.5 146.8 378 147.2 379.1 149.1 379.5 150.2 379.1L167.2 369.1 182.3 373 171.3 383.8 151.7 383.7C150.2 383.6 149 384.8 149 386.3 148.6 387.4 150.1 388.9 151.6 388.9L166 389 154.9 399.9 112.3 399.2C110.8 399.2 109.7 400.3 109.7 401.8 109.7 403.3 110.8 404.5 112.3 404.5L149.6 405.1 136.7 417.9 120.1 417.7C118.6 417.7 117.5 418.9 117.5 420.4 117.4 421.9 118.6 423 120.1 423L131 423.5 121.5 432.8C120.4 434 120.4 435.5 121.5 436.6 122.6 437.7 124.1 437.8 125.2 436.6L134.7 427.3 134.7 437.8C134.7 439.3 135.8 440.5 137.3 440.5S139.9 439.4 139.9 437.9L140.1 422 153.4 408.9 153.1 445.9C153.1 447.4 154.2 448.5 155.7 448.6 157.2 448.6 158.4 447.4 158.4 445.9L158.7 403.7 169.7 392.8 169.6 407.2C169.6 408.7 170.7 409.8 172.2 409.8 173.7 409.8 174.9 408.7 174.9 407.2L175 387.6 185.7 377.1 189.3 391.5 179.4 408.8C179 409.9 179.4 411.8 180.5 412.2 182 412.9 183.1 412.6 184.3 411.4L191.5 399 195.2 413.4 173.8 450.2C173 451.7 173.4 452.8 174.5 454 176 454.7 177.5 454 178.3 453.3L197.4 421 201.8 439.1 193.8 453C192.6 454.1 193.4 455.6 194.5 456.8 195.6 457.2 197.5 456.8 198.3 455.3L203.6 446.3 207.3 459.1C207.3 460.6 208.8 461.4 210.7 461 211.8 460.7 212.6 459.2 212.2 458L208.9 444.8 218.3 450.5C219.8 451.3 221.3 450.6 221.7 449.4 222.8 448.3 222.5 447.2 221.7 446.4 221.3 446 221.3 446 221 445.7L207.1 437.6 202.7 419.5 234.6 438.2C235.7 439.4 237.2 438.6 238.4 437.5 238.8 436.4 238.4 435.2 237.7 434.5 237.3 434.1 237.3 434.1 237.3 434.1L200.5 411.9 196.8 397.6 209.2 404.8C210.7 405.6 211.8 405.2 213 404.1 213.4 403 213.4 401.5 212.6 400.7 212.3 400.3 212.3 400.3 211.9 400L194.6 390 191 375.7 205.3 379.5 215.3 396.6C216 398.1 217.9 398.5 219.1 398.1 220.2 397 221 395.5 219.8 394.4L212.8 381.9 227.5 385.4 248.7 422.9C249 424 250.9 424.4 252.1 424 253.2 422.9 254 421.4 253.2 419.9L235 387.7 252.7 392.7 260.5 406.7C261.2 408.2 263.1 408.6 264.3 407.5 265.4 407.1 266.2 405.6 265.4 404.1L259.8 394.7 273 398.1C274.1 398.5 275.6 397.8 276.4 396.3 276.4 395.5 276 394.4 275.3 393.6 275.3 393.6 274.9 393.3 274.5 392.9L261.4 389.4 270.8 383.8C272 383.4 272.4 381.5 272 380.4 271.6 380 271.6 380 271.6 380 270.5 378.9 269 378.9 268.2 379.6L254.2 387.4 236.2 382.8 268.7 364.2C269.9 363 270.3 361.9 269.5 360.4 269.5 360.4 269.1 360 269.1 360 268.4 359.3 267.3 358.9 265.7 359.6L228.6 380.5 214.3 376.6 226.8 369.5C228 368.4 228.7 366.9 227.6 365.7 228 365.4 227.6 365 227.6 365 226.9 364.2 225.4 364.2 224.2 364.6L207.2 374.6 192.5 370.4 203.1 359.9 222.7 360.1C224.3 360.1 225.8 358.6 225.8 357.1 225.4 355.9 224.3 354.8 223.2 354.4L208.5 354.7 219.5 343.8 261.7 344.1C263.2 344.1 264.4 343 264.4 341.5 264.4 340 263.3 338.9 261.8 338.9L224.8 338.6 238.1 325.5 253.9 325.6C255.4 325.6 256.6 324.5 256.6 323S255.5 320.3 254 320.3L243.4 320.2 252.9 310.9C254 309.8 254.1 308.2 252.9 307.1 251.8 306 250.3 306 249.2 307.1L239.7 316.4 239.4 305.5C239.4 304.7 239.4 304 239 303.6 238.6 303.2 237.5 302.8 236.8 302.8 235.2 302.8 234.1 303.9 234.1 305.5L234.3 321.7 221.1 334.8 221 297.4C221 296.7 221 295.9 220.6 295.6 220.2 295.2 219.1 294.8 218.3 294.8 216.8 294.8 215.7 295.9 215.7 297.4L215.7 340 204.7 350.9 205.2 336.2C205.2 335.4 204.5 334.7 204.1 334.3 203.7 333.9 203.3 333.5 202.6 333.5 201.1 333.5 199.6 335 199.9 336.1L199.4 356.1 188.8 366.6 184.7 351.9 195 335C195.4 333.8 195.4 332.3 194.7 331.6 194.3 331.2 194.3 331.2 193.9 331.6 192.8 330.4 190.9 330.8 190.1 332.3L182.9 344.7 178.8 329.9 201 293.1C201.4 292 201 290.9 200.3 290.1 199.9 289.7 199.9 289.7 199.9 289.7 198.4 289 196.9 289 196.1 290.5L177 322.8 172.6 304.6 180.7 290.7C181.4 289.2 181 288.1 180.3 287.3 180.3 287.3 179.9 286.9 179.9 286.9 178.4 286.2 176.9 286.9 176.1 287.7L170.8 297.4 167.5 284.2C167.1 283.8 166.8 283.5 166.4 283.1 166 282.7 164.9 282.3 164.1 282.3 162.6 283 161.5 284.2 162.2 285.7L165.5 298.9 156.1 293.2C154.6 292.4 153.1 293.2 152.3 293.9 151.6 295.4 152.3 296.9 153.4 298.1L167.3 306.1 172.1 323.8 140.2 305.1C138.7 304.4 136.8 304.7 136.4 305.9 135.6 307.4 135.6 308.9 137.1 309.6Z" fill="rgba(51, 121, 194, 0.58)"></path><path d="M199.8 710.7L197.5 754.7 188.7 763.1 162.8 754.9 159.9 742.8 184.1 705.7C184.2 705.2 184.2 705.2 184.4 704.7 184.7 703.6 184.5 702.5 183.2 701.5 181.6 701 180.5 701.2 179.5 702.5L158.5 735 154.4 716.4 163.4 701.9C163.4 701.9 163.6 701.4 163.6 701.4 163.9 700.4 163.7 699.2 162.4 698.2 161.5 697.4 159.7 697.9 158.7 699.3L152.4 708.5 149.5 694.7C149.3 693.5 148 692.5 146.3 692.5S143.9 694.6 144 696.3L147 709.6 137.7 703.8C136.3 702.8 134.4 703.3 133.4 704.7 133.1 705.7 133.1 707.4 134.5 708.4L149 717.5 152.9 736.6 120.4 715.6C119.1 714.7 117.2 715.2 116.4 716 115.9 717.6 115.9 719.2 117.3 720.2L154.6 743.9 157.3 756.5 137.6 774.3 125.4 770.4 104.8 731.4C104.1 730 102.6 729.5 101.2 730.2S99.4 732.5 100.1 733.8L118.3 768.1 99.5 762.1 91.9 747.4C91.2 746.1 89.6 745.6 87.8 746.1S86 748.3 86.7 749.7L92.4 759.9 78.6 755.5C77.1 755 75.6 756.2 75.1 757.8 74.6 759.3 75.3 760.6 76.9 761.1L90.6 765.5 80.5 770.7C78.7 771.2 78.2 772.7 79.4 774.2 80.1 775.6 81.6 776 83 775.4L97.7 767.7 116.5 773.7 81.8 791.2C80.5 791.9 79.8 794 80.5 795.3S82.7 797.1 84.1 796.4L123.6 776 135.8 779.9 141.4 806.3 132.1 814.5 88 812.2C86.3 812.2 85.3 813.6 84.8 815.1 84.9 816.8 86.2 817.8 87.8 818.3L126.4 820 112.2 832.8 95.2 831.9C93.5 831.9 92.5 833.2 92 834.8 92.2 836 93.4 837.5 95.1 837.4L106.1 838.1 95.7 847.7C94.9 848.6 94.9 850.3 95.6 851.6 97 852.6 98.7 852.6 99.5 851.7L109.8 842.1 109.5 853.8C109.7 854.9 110.9 856.4 112.1 856.3 113.6 856.7 114.4 855.9 114.9 854.4 114.9 854.4 115.1 853.9 115.1 853.9L116 836.8 130.2 824 128.5 862.6C128.5 864.3 129.2 865.6 130.9 865.6 132.6 865.6 133.4 864.7 133.7 863.7 133.9 863.2 133.9 863.2 133.9 863.2L135.8 818.5 145.2 810.3 171.1 818.5 173.4 830.5 149.7 868.2C148.8 869.1 149.4 870.9 150.2 871.8 151.6 872.8 153.4 872.2 154.4 870.9L175.4 838.4 179.5 857 170.4 871.5C169.5 872.9 169.5 874.5 171 875 172.4 876 174.2 875.5 175 874.6L181 864.8 183.9 878.6C184.6 879.9 185.9 880.9 187.6 880.9 188.3 880.5 189.1 879.7 189.4 878.7 189.6 878.2 189.6 878.2 189.3 877.5L186.4 863.7 196.2 869.6C197.6 870.6 198.9 869.9 199.8 869.1 199.9 868.6 199.9 868.6 200.1 868.1 200.4 867 200.2 865.9 199.4 865L184.9 856 180.8 837.3 213.3 858.3C214.8 858.8 216.5 858.7 217 857.2 217.6 856.9 217.6 856.9 217.8 856.3 218.1 855.3 217.4 854 216.6 853.2L178.8 829.4 176.5 817.4 196.3 799.1 208 802.8 228.4 842.4C229.1 843.7 231.1 844.4 232.5 843.7S234.5 840.9 233.8 839.6L215.6 805.3 233.9 811.1 242 826C242.7 827.3 244.2 827.8 245.6 827.1 246.9 826.4 247.4 824.9 246.7 823.6L241.5 813.5 255.2 817.9C256.3 818.2 258.1 817.7 258.6 816.2 259.1 814.6 258 812.6 257 812.3L243.3 807.9 253.3 802.7C254 802.4 254.7 802 254.8 801.5 255.2 800.5 254.8 799.8 254.5 799.2 253.8 797.8 252.3 797.4 250.9 798L235.7 805.5 217.4 799.7 252.1 782.2C252.7 781.8 252.9 781.3 253.2 780.3 253.4 779.8 253.5 779.3 253.2 778.6 252.5 777.3 250.5 776.6 249.1 777.3L209.8 797.3 198.1 793.5 192.3 767.6 201.3 758.7 245.9 761.2C247 761 248.4 760.3 248.7 759.3 248.9 758.8 248.9 758.8 248.4 758.6 248.9 757.1 247.6 755.6 246 755.6L207.3 753.9 221.6 740.6 238.7 741.5C239.9 741.4 240.7 740.5 241 739.5 241 739.5 241.2 739 241.2 739 241.7 737.5 240.5 735.9 238.8 736L227.1 735.6 237.5 726C238.1 725.7 238.3 725.2 238.5 724.7 238.8 723.7 238.6 722.5 238.1 722.3 236.9 720.8 235.2 720.8 233.9 721.5L223.5 731.1 224.2 720.1C224.2 718.5 223 717 221.3 717 220.1 717.2 218.6 718.4 218.8 719.5L217.9 736.6 203.7 749.4 205.4 710.8C205.4 709.1 204 708.1 202.5 707.6 201.3 707.8 199.8 709 199.8 710.7ZM164.1 761.4L183.9 767.7 186.9 768.7 187.7 771.7 192 791.6 192.5 795.1 190.2 797.2 175.2 810.9 172.9 812.9 169.8 812 150 805.7 146.9 804.7 146.2 801.7 141.9 781.8 141.2 778.8 143.7 776.2 158.7 762.5 161 760.5 164.1 761.4Z" fill="rgba(51, 121, 194, 0.58)"></path></g><defs><mask id="SvgjsMask1068"><rect width="1920" height="1080" fill="#ffffff"></rect></mask><filter id="SvgjsFilter1069"><feGaussianBlur stdDeviation="1"></feGaussianBlur></filter></defs></svg>