<svg xmlns="http://www.w3.org/2000/svg" version="1.1" xmlns:xlink="http://www.w3.org/1999/xlink" xmlns:svgjs="http://svgjs.com/svgjs" width="1040" height="620" preserveAspectRatio="none" viewBox="0 0 1040 620"><g mask="url(&quot;#SvgjsMask1092&quot;)" fill="none"><rect width="1040" height="620" x="0" y="0" fill="#0e2a47"></rect><circle r="5.895" cx="725.095" cy="531.625" filter="url(#SvgjsFilter1093)" fill="rgba(51, 121, 194, 0.58)"></circle><circle r="7.17" cx="725.01" cy="599.6999999999999" filter="url(#SvgjsFilter1093)" fill="rgba(51, 121, 194, 0.58)"></circle><circle r="6.11" cx="950.82" cy="610.88" filter="url(#SvgjsFilter1093)" fill="rgba(51, 121, 194, 0.58)"></circle><circle r="8.365" cx="721.975" cy="170.19500000000002" filter="url(#SvgjsFilter1093)" fill="rgba(51, 121, 194, 0.58)"></circle><circle r="10.095" cx="329.32500000000005" cy="119.995" filter="url(#SvgjsFilter1093)" fill="rgba(51, 121, 194, 0.58)"></circle><circle r="7.96" cx="879.62" cy="515.34" filter="url(#SvgjsFilter1093)" fill="rgba(51, 121, 194, 0.58)"></circle><circle r="7.55" cx="918.4" cy="496.07" filter="url(#SvgjsFilter1093)" fill="rgba(51, 121, 194, 0.58)"></circle><circle r="9.84" cx="184.51" cy="625.47" filter="url(#SvgjsFilter1093)" fill="rgba(51, 121, 194, 0.58)"></circle><circle r="6.13" cx="744.15" cy="434.02" filter="url(#SvgjsFilter1093)" fill="rgba(51, 121, 194, 0.58)"></circle><circle r="8.225" cx="314.685" cy="87.74499999999999" filter="url(#SvgjsFilter1093)" fill="rgba(51, 121, 194, 0.58)"></circle><circle r="6.115" cx="783.765" cy="52.485" filter="url(#SvgjsFilter1093)" fill="rgba(51, 121, 194, 0.58)"></circle><circle r="9.65" cx="959.35" cy="152.51000000000002" filter="url(#SvgjsFilter1093)" fill="rgba(51, 121, 194, 0.58)"></circle><circle r="9.705" cx="606.2950000000001" cy="530.5250000000001" filter="url(#SvgjsFilter1093)" fill="rgba(51, 121, 194, 0.58)"></circle><circle r="5.905" cx="504.385" cy="535.915" filter="url(#SvgjsFilter1093)" fill="rgba(51, 121, 194, 0.58)"></circle><circle r="7.4" cx="889.74" cy="166.66" filter="url(#SvgjsFilter1093)" fill="rgba(51, 121, 194, 0.58)"></circle><circle r="7.51" cx="1039.34" cy="605.91" filter="url(#SvgjsFilter1093)" fill="rgba(51, 121, 194, 0.58)"></circle><circle r="8.945" cx="533.315" cy="174.355" filter="url(#SvgjsFilter1093)" fill="rgba(51, 121, 194, 0.58)"></circle><circle r="10.23" cx="280.65000000000003" cy="23.700000000000003" filter="url(#SvgjsFilter1093)" fill="rgba(51, 121, 194, 0.58)"></circle><circle r="7.555" cx="221.85500000000002" cy="395.495" filter="url(#SvgjsFilter1093)" fill="rgba(51, 121, 194, 0.58)"></circle><circle r="9.72" cx="62.71" cy="575.58" filter="url(#SvgjsFilter1093)" fill="rgba(51, 121, 194, 0.58)"></circle><path d="M478.1 70.3L458 90.8 450.1 91.1 441 75.9 444.8 68.8 472.5 61.1C472.8 60.9 472.8 60.9 473.1 60.7 473.7 60.3 474.1 59.7 473.9 58.6 473.4 57.7 472.7 57.3 471.6 57.5L447.4 64.4 453.4 53.5 464.1 50.4C464.1 50.4 464.4 50.2 464.4 50.2 465 49.8 465.4 49.2 465.2 48.1 465.1 47.3 464 46.8 462.9 47L455.9 48.8 460.4 40.8C460.8 40.2 460.6 39.1 459.7 38.4S457.7 38.4 457 39.2L452.8 47 450.7 40.2C450.5 39.1 449.3 38.6 448.3 38.8 447.7 39.2 447 40 447.2 41.1L450.4 51.7 444.1 62.8 437.2 38.6C437 37.5 435.8 37 435.1 37.1 434.2 37.6 433.5 38.4 433.7 39.5L441.7 67 437.6 74.3 420.4 74.6 416.1 67.4 422.8 39.6C423.1 38.6 422.5 37.7 421.6 37.5S419.7 37.8 419.5 38.7L413.6 63.3 407 52.3 409.6 41.8C409.9 40.9 409.3 40 408.2 39.4S406.4 39.7 406.1 40.7L404.5 48.1 399.7 40.1C399.2 39.2 397.9 39.2 397 39.7 396.1 40.2 395.9 41.2 396.4 42.1L401.2 50.1 394.1 48.3C393 47.8 392.1 48.3 392 49.6 391.8 50.5 392.3 51.4 393.3 51.6L403.7 54.2 410.3 65.2 385.9 58.9C385 58.7 383.8 59.4 383.5 60.3S383.8 62.2 384.8 62.4L412.8 69.4 417.1 76.5 408.5 91.8 400.4 91.8 379.9 71.8C379.1 71.1 378 71.3 377.1 71.9 376.4 72.7 376.6 73.8 377.2 74.7L395.3 92.1 382.9 92.2 375 84.5C374.1 83.8 373.1 84 372.2 84.5 371.8 85.2 371.7 86.4 372.5 87.1L377.6 92.2 368.4 92.4C367.7 92.5 367 93.3 366.7 94.3 367 95.3 367.8 96.1 368.6 96L377.7 95.8 372.6 101.3C372.1 101.9 372.1 103.2 372.7 103.6 373.3 104.5 374 104.4 374.9 103.9 374.9 103.9 375.2 103.7 375.2 103.7L383 95.8 395.4 95.6 378 113.8C377.3 114.6 377.1 115.6 377.9 116.3 378.7 117 379.5 116.9 380.1 116.6 380.4 116.4 380.4 116.4 380.4 116.4L400.6 95.4 408.6 95.4 417.7 110.5 413.8 117.4 385.9 125.6C385.2 125.7 384.6 126.8 384.7 127.6 384.9 128.6 386.1 129.2 387.1 128.9L411.3 122.1 405.3 133 394.7 136.1C393.6 136.4 392.9 137.2 393.4 138.1 393.7 139.2 394.8 139.7 395.6 139.6L402.7 137.4 398.2 145.3C398 146.3 398.2 147.4 399 148.1 399.5 148.2 400.3 148.1 400.9 147.8 401.2 147.6 401.2 147.6 401.3 147.1L405.8 139.1 408.1 146.3C408.3 147.4 409.3 147.6 410 147.5 410.3 147.3 410.3 147.3 410.6 147.2 411.2 146.8 411.6 146.2 411.6 145.4L408.4 134.7 414.4 123.9 421.3 148.1C421.8 148.9 422.6 149.7 423.5 149.1 424 149.2 424 149.2 424.3 149.1 424.9 148.7 425.1 147.8 425.1 147L416.9 119.2 420.8 112.3 438.4 111.9 442.5 118.7 435.5 146.8C435.2 147.8 435.9 148.9 436.9 149.2S439 148.7 439.3 147.8L445.2 123.2 451.6 133.9 449.1 144.7C448.9 145.6 449.4 146.5 450.4 146.7 451.3 147 452.2 146.4 452.5 145.5L454.3 138.4 459.1 146.4C459.4 147 460.6 147.5 461.5 147 462.3 146.4 462.7 145 462.3 144.4L457.5 136.4 464.7 138.2C465.1 138.3 465.6 138.4 465.9 138.2 466.5 137.9 466.6 137.4 466.7 136.9 467 136 466.4 135.1 465.5 134.8L454.8 131.9 448.4 121.2 472.9 127.6C473.3 127.7 473.6 127.5 474.2 127.2 474.5 127 474.8 126.8 474.9 126.3 475.2 125.4 474.5 124.2 473.5 124L445.7 116.8 441.6 109.9 450 94.8 458.2 94.4 478.9 114.7C479.5 115.1 480.5 115.3 481.1 115 481.4 114.8 481.4 114.8 481.2 114.5 482.1 114 482.1 112.7 481.3 112L463.2 94.6 475.9 94.2 483.8 102C484.4 102.4 485.2 102.4 485.8 102 485.8 102 486.1 101.8 486.1 101.8 487 101.3 487.1 100 486.2 99.3L480.7 94.2 489.8 93.9C490.3 94 490.6 93.9 490.9 93.7 491.5 93.3 491.9 92.7 491.7 92.4 491.8 91.1 491 90.4 490 90.2L480.9 90.4 485.9 85.4C486.6 84.5 486.7 83.3 485.9 82.6 485.2 82.2 484 82.1 483.5 82.8L475.8 90.7 463.3 90.8 480.7 72.7C481.5 71.9 481.2 70.8 480.7 69.9 480 69.5 478.8 69.4 478.1 70.3ZM438.8 79.7L445.8 91.3 446.9 93.1 445.9 94.8 439.5 106.4 438.2 108.3 436.2 108.3 423 108.6 421 108.6 419.9 106.8 413 95.2 411.9 93.4 412.9 91.6 419.3 80.1 420.2 78.3 422.5 78.1 435.7 77.9 437.8 77.9 438.8 79.7Z" fill="rgba(51, 121, 194, 0.58)"></path><path d="M278.2 268.8L264 276.6 263.8 266.8C263.8 265.8 262.9 264.7 261.4 264.4 260.2 264.7 259.1 265.7 259.4 267L259.3 279.2 248.5 285.7 248.9 260.3C248.5 259 247.6 257.9 246.5 257.9 244.9 258 243.8 258.9 244.1 260.2L243.8 288.3 227 297.8 229.6 275.8 211.8 289 211.8 269.7 236.1 255.5C236.5 255.8 236.7 255.4 237 255 237.4 254.2 237.5 253.1 236.9 252.3 236.4 251.4 234.9 251.1 233.7 251.4L211.7 264.3 212.1 251.7 222.7 245.6C223.3 245.4 223.5 245 223.8 244.6 224 244.2 224.1 243.2 223.5 242.3 222.9 241.4 221.5 241.1 220.6 241.7L212.1 246.3 211.8 230.2C212.1 228.7 210.9 228 209.5 227.7 208.5 227.7 207.4 228.6 207.5 230.3L207.3 246.2 198.9 241.4C197.7 240.7 196.2 241.4 195.7 242.2 195.1 243.4 195.4 244.7 196.6 245.4L207.4 251.6 207 264.2 185.4 251.7C184.2 251 182.9 251.3 182.2 252.5 181.8 253.3 181.9 255 183.1 255.7L207 269.6 207.1 288.9 189.5 276 191.8 297.7 175 287.9 175.1 260.1C175 258.5 173.8 257.8 172.8 257.7 171.8 257.7 170.7 258.6 170.4 260.1L170.6 285.3 159.8 279.1 159.6 266.6C159.9 265.2 158.9 264.1 157.3 264.2 156.2 264.1 155.1 265.1 155.2 266.8L155.1 276.3 141.1 268.1C139.9 267.4 138.6 267.8 137.9 269S137.5 271.4 138.7 272.1L152.7 280.3 144.5 285.1C143 285.9 142.8 287.3 143.3 288.2 144 289.6 145.5 289.9 146.6 289L157.5 283.1 168.3 289.3 146.2 301.6C145.1 302.6 144.8 304 145.4 304.9 146.1 306.4 147.5 306.6 148.6 305.7L172.7 291.9 189.5 301.7 169.5 310.3 189.4 319.3 172.6 328.8 148.7 314.8C147.5 314.1 146 314.8 145.5 315.6 144.8 316.8 145.1 318.1 146.3 318.8L168.3 331.6 157.1 337.9 146.3 331.6C145.1 330.9 143.9 331.3 143.2 332.5 142.7 333.3 142.8 334.9 144 335.6L152.4 340.5 138.6 348.5C137.1 349.3 136.8 350.7 137.8 351.8 138.4 352.7 139.6 353.4 140.7 352.4L154.8 344.6 155 354.4C155 355.4 155.9 356.5 157 356.5 158 356.6 158.9 356 159.1 355.6 159.3 355.2 159.6 354.8 159.4 354.2L159.6 342 170.3 335.4 170 360.9C170.3 362.2 171.3 363.3 172.3 363.3 173.3 363.4 174.2 362.8 174.7 362 174.9 361.6 174.9 361.6 174.7 361L175.1 332.8 191.8 323.3 189.2 345.3 207 332.2 207 351.5 182.7 365.6C181.8 366.2 181.1 367.4 181.9 368.9 182.4 369.8 183.9 370.1 185.1 369.7L207.1 356.8 206.7 369.5 196.2 375.6C194.9 375.9 194.6 377.4 195.3 378.9 195.9 379.7 197.3 380 198.6 379.7L206.8 374.8 207 391C206.7 392.4 207.9 393.1 209.3 393.4 209.9 393.3 210.8 392.7 211 392.3 211.3 391.9 211.5 391.5 211.3 390.9L211.5 374.9 219.9 379.8C221.1 380.5 222.6 379.8 223.1 379L223.1 379C223.8 377.8 223.4 376.5 222.2 375.8L211.5 369.5 211.8 356.9 233.4 369.5C234.6 370.2 235.9 369.9 236.6 368.7S236.9 366.2 235.7 365.5L211.8 351.5 211.8 332.3 229.4 345.2 227 323.5 243.8 333.3 243.7 361C243.8 362.7 245 363.4 246 363.5 247.1 363.5 248.1 362.6 248.4 361.1L248.6 336.1 259 342.1 259.2 354.6C258.9 356 259.9 357.1 261.6 357 262.6 357.1 263.7 356.1 264 354.7L263.8 344.9 277.8 353.1C279 353.8 280.2 353.4 280.9 352.2S281.3 349.8 280.1 349.1L266.1 340.9 274.3 336.1C274.9 335.9 275.1 335.5 275.4 335.1 275.8 334.3 275.7 333.7 275.5 333 274.8 331.5 273.3 331.2 272.2 332.2L261.3 338.1 250.5 331.9 272.6 319.6C272.9 319.2 273.1 318.8 273.3 318.4 273.8 317.6 273.6 317 273.5 316.3 272.7 314.8 271.3 314.5 270.2 315.5L246.1 329.3 229.3 319.5 249.4 310.9 229.4 301.9 246.2 292.4 270.2 306.4C271.4 307.1 272.9 306.3 273.3 305.5 274 304.4 273.7 303.1 272.5 302.4L250.9 289.8 261.7 283.3 272.5 289.5C273.7 290.2 274.9 289.9 275.6 288.7S276 286.2 274.8 285.6L266.4 280.7 280.2 272.6C280.8 272.5 281 272.1 281.3 271.7 281.5 271.3 281.6 270.2 281 269.4 280.4 268.5 279.2 267.8 278.2 268.8ZM238.2 310.8L221.8 317.8 223.8 335.5 209.1 324.9 195 335.4 196.7 317.7 180.6 310.4 197 303.4 195.1 285.6 209.3 296.1 223.8 285.8 221.7 303.3 238.2 310.8Z" fill="rgba(51, 121, 194, 0.58)"></path><path d="M776.8 352.1L803.1 324.2 837.3 323.5 820.9 353.5 784 364C784 364 783.6 364.2 783.6 364.2 782.8 364.7 782.5 366 782.6 367 782.9 368.4 784.4 369.1 785.6 368.4L817.8 359.1 809.9 373.7 795.7 377.9C795.7 377.9 795.3 378.2 795.3 378.2 794.5 378.6 794.2 379.9 794.3 380.9 794.6 382.4 796.1 383.1 797.3 382.4L807.1 379.7 801.1 390.3C800.5 391.2 801.1 393 802 393.6 803.1 394.5 804.7 393.6 805.2 392.7L811.2 382 813.9 391.8C814.2 393.2 815.7 393.9 816.9 393.2 818.3 392.9 819 391.4 818.3 390.2L814 376 822.2 361.9 831.5 394.1C831.8 395.5 833.3 396.2 834.5 395.5 835.9 395.2 836.6 393.6 835.9 392.5L825.4 355.6 841.8 325.6 859.8 355.2 850.6 392.7C850.3 394 851.1 395.2 852.3 395.5 853.6 395.8 854.8 395.1 855.1 393.8L863.2 360.8 871.8 375 868.4 389C868.1 390.2 868.8 391.4 870.1 391.7 871.3 392 872.5 391.3 872.8 390L875.2 380.5 881.9 391.6C882.2 393 883.9 393.1 885 392.4 886.2 391.6 886.5 390.4 885.8 389.2L879.6 378.9 889.1 381.2C890.4 381.5 891.6 380.8 891.9 379.6S891.5 377.1 890.2 376.8L876.2 373.4 867.6 359.2 900.6 367.2C901.9 367.5 903.1 366.8 903.4 365.5 903.7 364.3 903 363.1 901.7 362.8L864.2 353.6 846.5 324.4 880.6 323.7 907.6 349.4C908.8 350.4 910.2 350 911.4 349.3 912.3 348.2 912 346.8 911.3 345.6L887 322.5 903.5 322.2 914.1 332.5C915.3 333.5 916.7 333.1 917.9 332.4 918.8 331.3 918.5 329.9 918 329.1L910.6 322.2 922.8 321.8C923.8 321.8 925.4 320.8 925.1 319.4 924.8 317.9 924 316.8 922.6 317.1L910.4 317.5 917.3 310.1C918.2 308.9 917.9 307.5 917.4 306.7 916.5 306.2 915.3 305.9 914.5 306.3 914.5 306.3 914.1 306.6 914.1 306.6L903.7 317.2 887.2 317.5 910.3 293.2C911.2 292.1 910.9 290.7 910.4 289.9 909.5 289.3 908.3 289 907.5 289.5 907.5 289.5 907.1 289.7 907.1 289.7L880.8 317.6 846.6 318.4 863 288.4 899.9 277.9C901.3 277.6 902 276.1 901.3 274.9 901 273.4 899.5 272.7 898.3 273.5L866.1 282.7 874 268.2 888.2 263.9C889.6 263.6 890.3 262.1 889.6 260.9 889.3 259.5 887.7 258.8 886.6 259.5L876.8 262.2 882.8 251.5C883.3 250.6 882.8 248.8 881.9 248.3 881 247.7 880 247.8 879.2 248.3 878.8 248.5 878.4 248.8 878.3 249.4L872.3 260 869.6 250.3C869.3 248.9 867.8 248.2 866.6 248.9 866.6 248.9 866.2 249.1 866.2 249.1 865.4 249.6 865.1 250.9 865.2 251.9L869.5 266.1 861.5 280.6 852.3 248.4C851.9 247 850.4 246.3 849.2 247 849.2 247 848.8 247.2 848.8 247.2 848 247.7 847.7 249 847.8 250L858.3 286.9 841.9 316.9 824.2 287.6 833.3 250.2C833.6 248.9 832.9 247.7 831.6 247.4 830.4 247.1 829.2 247.8 828.9 249.1L820.6 281.7 811.9 267.5 815.3 253.5C815.6 252.3 814.9 251.1 813.7 250.8S811.2 251.2 810.9 252.4L808.6 262 802.3 251.7C801.6 250.5 800.3 250.2 799.2 250.9 798 251.6 797.7 252.9 798.4 254.1L804.6 264.4 795.1 262C794.5 261.9 793.8 261.7 793 262.2S792.1 263.3 791.9 264C791.6 265.2 792.3 266.4 793.6 266.7L807.6 270.1 816.2 284.4 783.2 276.3C782.6 276.1 781.9 276 781.1 276.5 780.7 276.7 780.2 277.6 780 278.2 779.7 279.5 780.4 280.7 781.7 281L819.2 290.1 836.9 319.4 802.8 320.1 774.9 293.8C774 293.2 772.7 292.9 772 293.4 772 293.4 771.6 293.6 771.6 293.6 770.6 294.7 770.9 296.2 771.4 297L795.7 320.1 779.2 320.4 768.6 310.1C767.7 309.5 766.4 309.2 765.6 309.7 765.6 309.7 765.2 309.9 765.2 309.9 764.3 311 764.6 312.5 765.1 313.2L772.5 320.1 760.3 320.5C759.9 320.7 759.3 320.6 758.9 320.8 758.1 321.3 757.5 322.2 757.6 323.2 757.9 324.6 758.6 325.8 760.1 325.5L772.3 325.1 765.4 332.5C764.5 333.6 764.8 335.1 765.3 335.8 766.4 336.8 767.8 336.5 768.6 336L778.9 325.4 795.5 325.1 772.4 349.4C771.5 350.5 771.8 351.9 772.3 352.7 774.2 353.2 775.8 353.2 776.8 352.1Z" fill="rgba(51, 121, 194, 0.58)"></path><path d="M847.3 624.1L822 610.3 815 585.6 839.9 591.8 854.5 616.6C854.5 616.6 854.8 616.9 854.8 616.9 855.3 617.4 856.2 617.3 857 617.1 857.9 616.6 858.2 615.3 857.4 614.6L844.6 593 856.6 596 862.4 605.5C862.4 605.5 862.7 605.7 862.7 605.7 863.2 606.2 864.2 606.2 864.9 605.9 865.9 605.4 866.1 604.2 865.3 603.5L861.6 596.9 870.4 599.2C871.2 599.5 872.4 598.7 872.6 598 873.1 597 872.1 596 871.3 595.8L862.5 593.5 869 589.7C870 589.2 870.2 587.9 869.5 587.2 869 586.2 867.8 586 867 586.8L857.6 592.6 845.7 589.3 867.4 576.5C868.3 576 868.6 574.7 867.8 574 867.3 573 866.1 572.8 865.4 573.6L840.6 588.2 815.7 581.9 833.8 563.3 862.7 562.8C863.7 562.8 864.4 562 864.4 561.1 864.4 560.1 863.7 559.4 862.7 559.4L837.2 559.8 845.9 550.8 856.7 550.6C857.6 550.6 858.4 549.9 858.4 548.9 858.3 547.9 857.6 547.2 856.6 547.2L849.3 547.3 856 540.4C857 539.9 856.7 538.6 856 537.9 855.2 537.2 854.3 537.2 853.5 537.9L847.3 544.4 847.1 537.1C847.1 536.1 846.4 535.4 845.4 535.4S843.7 536.1 843.7 537.1L843.9 547.9 835.2 556.9 834.8 531.4C834.8 530.4 834 529.7 833.1 529.7 832.1 529.7 831.3 530.4 831.4 531.4L831.8 560.3 814 578.8 807 554.1 820.5 529.6C821 528.6 820.5 527.7 819.8 526.9 818.8 526.5 817.8 527 817.1 527.7L804.9 549.7 801.6 537.8 807 528.1C807.5 527.1 807 526.2 806.3 525.4 805.3 525 804.3 525.5 803.8 526L800.2 532.6 797.7 523.9C797.4 523.1 796.4 522.2 795.4 522.7 794.5 523.2 793.7 523.9 794.2 524.9L796.8 533.7 790.2 530.1C789.2 529.6 788.2 530.1 787.7 530.6 787.5 531.4 787.5 532.4 788 532.8 788 532.8 788.2 533.1 788.2 533.1L797.9 538.6 801.3 550.5 779.3 538.4C778.3 537.9 777.3 538.4 776.8 538.9 776.6 539.6 776.6 540.6 777.1 541.1 777.1 541.1 777.3 541.3 777.3 541.3L802.6 555.2 809.6 579.8 784.7 573.6 770.1 548.8C769.6 547.8 768.4 547.6 767.6 548.4 766.7 548.9 766.4 550.1 767.2 550.8L780 572.4 768 569.4 762.2 560C761.7 559 760.4 558.8 759.7 559.5 758.7 560 758.5 561.2 759.3 562L763 568.5 754.2 566.2C753.4 566 752.2 566.7 752 567.5 751.8 568.2 752 568.9 752.5 569.4 752.8 569.7 753 569.9 753.5 569.9L762.4 572.2 755.8 576C754.8 576.5 754.6 577.7 755.4 578.5 755.4 578.5 755.6 578.7 755.6 578.7 756.1 579.2 757.1 579.2 757.8 578.9L767.3 573.1 779.3 576.1 757.7 589C756.8 589.5 756.5 590.7 757.3 591.4 757.3 591.4 757.5 591.7 757.5 591.7 758 592.1 759 592.1 759.7 591.9L784.5 577.3 809.4 583.5 791.5 601.9 762.6 602.4C761.6 602.4 760.9 603.1 760.9 604.1 760.9 605.1 761.7 605.8 762.6 605.8L787.9 605.7 779.2 614.6 768.4 614.8C767.4 614.8 766.7 615.5 766.7 616.5S767.5 618.2 768.5 618.2L775.8 618.1 769.6 624.6C768.8 625.3 768.9 626.3 769.6 627 770.3 627.7 771.3 627.7 772 627L778.3 620.5 778.4 627.9C778.4 628.4 778.5 628.8 778.9 629.3S779.9 629.8 780.4 629.8C781.4 629.8 782.1 629 782.1 628.1L781.9 617.3 790.6 608.3 791 633.8C791 634.3 791 634.8 791.5 635.3 791.8 635.5 792.5 635.7 793 635.7 794 635.7 794.7 635 794.7 634L794.3 605.1 812.1 586.6 819.1 611.3 805.3 636.5C805.1 637.3 805.1 638.2 805.6 638.7 805.6 638.7 805.8 639 805.8 639 806.8 639.4 807.8 638.9 808.3 638.4L820.4 616.4 823.8 628.4 818.3 638C818.1 638.8 818.1 639.7 818.6 640.2 818.6 640.2 818.8 640.5 818.8 640.5 819.8 640.9 820.8 640.4 821.3 639.9L824.9 633.3 827.4 642.1C827.7 642.3 827.7 642.8 827.9 643 828.4 643.5 829.2 643.7 829.9 643.5 830.9 643 831.6 642.2 831.1 641.3L828.5 632.5 835.2 636.1C836.2 636.5 837.2 636 837.6 635.5 838.1 634.5 837.6 633.6 837.1 633.1L827.5 627.6 824.1 615.6 846.1 627.8C847.1 628.3 848.1 627.8 848.5 627.3 848.5 625.8 848.3 624.6 847.3 624.1Z" fill="rgba(51, 121, 194, 0.58)"></path><path d="M396.3 553.8L388.8 539.5 398.6 539.5C399.6 539.6 400.7 538.6 401 537.2 400.7 535.9 399.8 534.8 398.5 535.1L386.3 534.7 380 523.8 405.4 524.7C406.7 524.4 407.8 523.5 407.9 522.4 407.8 520.8 406.9 519.7 405.6 520L377.5 519 368.4 502 390.3 505.2 377.5 487.1 396.8 487.5 410.5 512.1C410.2 512.5 410.6 512.7 411 513 411.8 513.4 412.8 513.5 413.7 513 414.6 512.4 414.9 511 414.6 509.7L402.2 487.5 414.8 488.2 420.7 498.9C420.9 499.5 421.3 499.7 421.7 500 422 500.2 423.1 500.3 424 499.8 424.8 499.2 425.2 497.8 424.6 496.9L420.2 488.2 436.3 488.4C437.8 488.7 438.5 487.5 438.8 486.1 438.9 485.1 438 483.9 436.3 484L420.4 483.5 425.4 475.2C426.2 474 425.5 472.5 424.7 472 423.5 471.3 422.2 471.6 421.5 472.8L415 483.4 402.4 482.8 415.4 461.5C416.1 460.3 415.8 459 414.6 458.3 413.9 457.8 412.2 457.9 411.5 459.1L397 482.7 377.7 482.3 391 465 369.3 466.9 379.4 450.3 407.2 451C408.8 450.9 409.6 449.8 409.7 448.7 409.7 447.7 408.8 446.6 407.4 446.3L382.1 446 388.6 435.3 401 435.3C402.5 435.7 403.6 434.7 403.5 433.1 403.6 432 402.7 430.9 401 431L391.5 430.6 399.9 416.8C400.7 415.6 400.4 414.3 399.2 413.6S396.7 413.2 396 414.4L387.6 428.2 382.9 419.9C382.2 418.4 380.7 418 379.9 418.6 378.4 419.3 378 420.7 379 421.8L384.7 432.9 378.1 443.5 366.4 421.2C365.4 420.1 364 419.7 363.1 420.3 361.6 421 361.3 422.4 362.2 423.5L375.5 447.9 365.4 464.4 357.1 444.2 347.8 464 338.6 447 353.1 423.4C353.8 422.2 353.1 420.7 352.3 420.2 351.2 419.5 349.9 419.8 349.2 420.9L335.9 442.6 329.8 431.3 336.3 420.7C337.1 419.5 336.7 418.2 335.6 417.5 334.8 417 333.1 417.1 332.4 418.3L327.3 426.5 319.6 412.6C318.9 411.1 317.5 410.8 316.4 411.7 315.5 412.2 314.7 413.4 315.7 414.5L323.2 428.9 313.4 428.9C312.4 428.8 311.3 429.7 311.2 430.8 311.1 431.8 311.7 432.7 312 432.9 312.4 433.1 312.8 433.4 313.5 433.2L325.7 433.7 332 444.6 306.6 443.6C305.3 443.9 304.2 444.9 304.1 445.9 304 446.9 304.5 447.8 305.3 448.3 305.7 448.5 305.7 448.5 306.4 448.4L334.5 449.4 343.6 466.3 321.7 463.2 334.5 481.3 315.2 480.9 301.5 456.3C301 455.4 299.8 454.7 298.3 455.4 297.4 455.9 297.1 457.4 297.4 458.6L309.8 480.8 297.2 480.2 291.3 469.5C291 468.2 289.5 467.9 288 468.6 287.2 469.2 286.8 470.6 287.1 471.9L291.8 480.1 275.6 480C274.2 479.7 273.5 480.9 273.2 482.3 273.3 482.9 273.9 483.8 274.3 484 274.7 484.3 275.1 484.5 275.7 484.4L291.6 484.9 286.6 493.2C285.8 494.4 286.5 495.9 287.3 496.3L287.3 496.3C288.5 497.1 289.8 496.8 290.5 495.6L297 484.9 309.6 485.6 296.6 506.9C295.9 508.1 296.2 509.3 297.3 510.1S299.8 510.5 300.5 509.3L315 485.6 334.3 486.1 320.9 503.4 342.7 501.5 332.6 518.1 304.8 517.4C303.1 517.4 302.4 518.6 302.3 519.6 302.2 520.7 303.2 521.8 304.6 522.1L329.7 522.8 323.4 533 310.9 533C309.5 532.7 308.4 533.6 308.5 535.3 308.4 536.3 309.3 537.4 310.7 537.8L320.5 537.8 312 551.6C311.3 552.8 311.6 554 312.8 554.8S315.3 555.2 316 554L324.4 540.2 329.1 548.5C329.3 549.1 329.7 549.4 330.1 549.6 330.8 550.1 331.5 549.9 332.1 549.8 333.6 549.1 334 547.6 333 546.5L327.3 535.5 333.8 524.8 345.6 547.2C346 547.4 346.4 547.7 346.8 547.9 347.6 548.4 348.2 548.2 348.9 548.1 350.4 547.4 350.7 546 349.8 544.9L336.5 520.5 346.6 503.9 354.9 524.1 364.2 504.4 373.3 521.4 358.9 545C358.2 546.2 358.9 547.7 359.6 548.2 360.8 548.9 362.1 548.6 362.8 547.4L375.8 526.1 382.2 537 375.7 547.7C374.9 548.9 375.2 550.1 376.4 550.9S378.9 551.3 379.6 550.1L384.7 541.8 392.4 555.8C392.5 556.4 392.9 556.6 393.3 556.9 393.7 557.1 394.8 557.2 395.6 556.7 396.5 556.1 397.2 554.9 396.3 553.8ZM355.2 513L348.5 496.4 330.7 498 341.7 483.6 331.5 469.2 349.2 471.4 356.8 455.4 363.5 472 381.2 470.4 370.5 484.4 380.4 499.1 363 496.6 355.2 513Z" fill="rgba(51, 121, 194, 0.58)"></path><path d="M728.8 62.2L721.7 60.5 725 56.9C725.3 56.5 725.4 55.8 724.9 55.2 724.4 54.9 723.6 54.9 723.3 55.2L718.9 59.9 712.4 58.3 721.3 48.8C721.9 48.2 721.9 47.4 721.3 47.1 720.9 46.5 720.1 46.5 719.6 47.1L709.7 57.6 703.8 56.3 699.7 42.8 703.3 38.8 718.2 42.5C718.4 42.4 718.7 42.4 718.9 42.3 719.1 42.2 719.5 41.9 719.6 41.6 719.9 40.8 719.4 40.2 718.7 40.2L705.1 36.8 709.7 32 716.7 33.5C716.8 33.8 717 33.7 717.2 33.6 717.7 33.5 718 33.1 718.1 32.6 718.2 32.1 717.8 31.5 717.2 31.2L711.5 30 717.2 24C717.6 23.6 717.6 22.9 717.2 22.3 716.6 22 715.9 22 715.5 22.3L710.2 28 708.8 23.4C708.6 22.7 707.8 22.5 707.4 22.6 706.7 22.8 706.2 23.4 706.4 24.1L708.2 30.1 703.6 34.8 699.8 22.5C699.6 21.8 699.1 21.5 698.4 21.7 697.7 21.9 697.4 22.5 697.6 23.1L701.8 36.8 698 41.1 684.2 37.8 682.7 32.7 692.7 22C693.3 21.5 693.2 20.6 692.7 20.3 692.2 19.7 691.6 19.9 691 20.3L681.9 30.1 679.9 23.6 684.5 18.9C684.9 18.5 684.8 17.6 684.5 17.2S683.2 16.9 682.6 17.3L679.1 21 676.8 13.2C676.6 12.6 675.8 12.3 675.1 12.5 674.7 12.7 674.1 13.3 674.3 14L676.7 21.7 671.5 20.6C671 20.5 670.4 20.7 670.1 21.5 670 22 670.5 22.9 671 23L677.5 24.4 679.4 30.8 666.4 27.7C665.7 27.7 665 27.9 664.8 28.7 664.7 29.2 665.2 30 665.7 30.1L680.2 33.5 681.8 38.5 672.1 48.9 666.6 47.5 662.5 33.8C662.3 33.1 661.7 32.8 661 33 660.4 33.2 659.8 33.8 660 34.5L663.8 46.9 657.3 45.4 655.5 39.5C655.3 38.8 654.7 38.5 654.1 38.7 653.4 38.9 653.1 39.5 653.3 40.1L654.7 44.8 647.1 43C646.6 42.9 645.8 43.4 645.7 43.9 645.7 44.6 645.9 45.3 646.6 45.3L654.5 47.3 650.6 51.3C650.3 51.9 650.3 52.6 650.6 53 651 53.4 651.5 53.5 652 53.3 652 53.3 652.2 53.3 652.3 53L657.3 47.9 663.8 49.3 654.3 59.6C653.7 60 653.7 60.8 654.4 61.3 654.6 61.5 654.9 61.6 655.4 61.5 655.6 61.4 655.8 61.3 656 61.3L666.4 49.9 671.6 51.3 675.7 64.8 671.5 69.2 657.4 65.9C656.6 65.7 656.1 66.1 656 66.8 655.7 67.4 656.1 68 656.9 68.3L669.7 71.2 665.1 76.2 658.9 74.7C658.4 74.6 657.8 75 657.5 75.6 657.4 76.3 657.6 77 658.4 77L663.1 78.2 658.2 83.6C657.6 84 657.8 84.7 658.2 85.2 658.5 85.4 659 85.5 659.5 85.4 659.5 85.4 659.7 85.3 659.9 85.2L665.2 79.5 666.8 85.1C667 85.5 667.6 86 668.3 85.8 669 85.6 669.2 84.8 669.1 84.4L667 77.5 671.5 72.5 675.6 86C675.8 86.7 676.6 86.9 677.3 86.7S678.2 86 678 85.3L673.5 70.5 677.4 66.4 691.2 69.7 692.9 75.5 682.7 86.3C682.4 86.9 682.3 87.6 682.8 88.2 683.1 88.4 683.6 88.5 684 88.3 684.2 88.3 684.5 88.2 684.6 87.9L693.7 78.1 695.7 84.6 691.1 89.5C690.8 89.9 690.7 90.6 691.2 91.2 691.7 91.5 692.5 91.6 692.8 91.2L696.5 87.2 698.6 94.3C698.7 94.7 699.6 95.2 700 95.1 700.7 94.9 701.2 94 701 93.6L698.9 86.5 703.9 87.9C704.1 87.8 704.4 87.7 704.6 87.7 705 87.5 705.4 87.2 705.5 86.9 705.6 86.2 705.1 85.6 704.6 85.2L698.1 83.8 696.2 77.4 709.2 80.5C710 80.7 710.6 80.3 710.6 79.8 710.9 79 710.5 78.4 709.9 78.1L695.4 74.8 693.6 69 703.3 58.6 708.7 59.8 713.2 74.7C713.4 75.3 714 75.6 714.6 75.4 715.3 75.2 715.6 74.7 715.4 74L711.3 60.5 717.9 62.2 719.9 69C720.1 69.5 720.9 69.9 721.6 69.7 722.3 69.5 722.5 68.7 722.4 68.3L720.7 62.7 728.3 64.6C728.5 64.5 728.5 64.5 728.7 64.4 729.1 64.3 729.5 63.9 729.7 63.7 729.7 62.9 729.3 62.3 728.8 62.2ZM692.8 66.3L691.7 67.4 690.4 67.1 679.2 64.4 677.9 64.1 677.5 62.8 674.2 51.9 673.8 50.6 674.7 49.6 682.6 41.2 683.5 40.2 685 40.5 696 43.2 697.5 43.4 697.9 44.8 701.2 55.6 701.6 56.9 700.4 58 692.8 66.3Z" fill="rgba(51, 121, 194, 0.58)"></path><path d="M532.9 137.7L542.7 122.1 549.3 120.8 546 126C545.5 126.5 545.8 127.2 546.2 127.7 546.7 127.9 547.5 127.7 547.7 127.3L552.5 120.1 558.9 118.6 556.8 124.9 549.1 128.8C549.1 128.8 549 129 549 129 548.6 129.3 548.6 129.9 548.7 130.4 549.2 130.9 549.7 131.1 550.4 130.8L555.9 128 553.8 134.2 537.5 142.8C537.5 142.8 537.2 142.8 537.2 142.8 536.9 143.1 536.8 143.8 537 144.3 537.3 145 538.1 145.2 538.6 144.7L552.8 137.3 550.5 145.1 544.2 148.4C544.2 148.4 544.2 148.4 544 148.5 543.7 148.8 543.5 149.3 543.6 149.8 544.1 150.3 544.7 150.7 545.4 150.4L549.6 148.1 547.8 153.8C547.5 154.4 548 154.9 548.4 155.1 549.1 155.5 549.7 155.2 549.9 154.4L551.8 148.9 553.8 153.1C554.2 153.6 554.9 153.9 555.4 153.5 556.1 153.2 556.2 152.7 555.9 152L552.6 145.6 555.1 138.1 562.6 152.5C562.8 153 563.6 153.2 564.2 152.9 564.6 152.6 564.9 151.9 564.6 151.3L556.1 135 558.1 128.7 561 134.2C561.3 134.9 561.9 134.9 562.6 134.6 563.1 134.5 563.3 133.7 563.2 133.2L559.1 125.6 561 119.2 565.5 124.1 565.2 132.6C565.1 133.3 565.6 133.8 566.2 133.8 566.7 134 567.4 133.4 567.4 132.7L567.7 126.5 572.2 131.5 571.3 149.9C571.2 150.6 571.7 151.1 572.3 151.1 573 151.1 573.5 150.7 573.5 150L574.4 133.9 579.7 139.7 579.4 146.8C579.4 147.5 579.8 148 580.5 148 581.1 148.1 581.7 147.6 581.7 146.9L582.1 142.2 586 146.5C586.4 147 587.1 147 587.6 146.6 588.1 146.1 588.1 145.4 587.7 144.9L583.8 140.7 588.3 140.9C589 140.9 589.5 140.4 589.5 139.8S589.1 138.6 588.4 138.6L581.6 138.3 576.1 132.3 592.1 133C592.8 133 593.3 132.6 593.3 131.9 593.4 131.3 592.9 130.8 592.2 130.7L573.9 129.9 569.4 125 575.6 125.2C576.3 125.3 576.8 124.8 576.8 124.2 576.9 123.5 576.4 123 575.7 123L567.2 122.6 562.9 117.8 569.2 116.4 576.5 121C577 121.2 577.8 121.1 578 120.6 578.3 120 578.2 119.5 577.7 119L572.5 115.6 578.7 114.3 594.3 124.1C595 124.5 595.5 124.3 596 123.9 596.3 123.2 596 122.6 595.7 122.2L582 113.4 590 111.8 595.9 115.5C596.3 116 597 115.7 597.5 115.3 597.7 114.8 597.6 114 596.9 113.6L593.1 111.1 598.7 109.8C599.4 109.8 599.7 109.2 599.6 108.3 599.5 107.8 598.8 107.5 598.3 107.6L592.6 108.8 595.2 104.9C595.5 104.2 595.3 103.6 594.8 103.4 594.3 102.9 593.8 103 593.5 103.3 593.3 103.5 593.3 103.5 593.1 103.6L589.4 109.5 581.5 111.1 590.1 97.6C590.6 97.1 590.3 96.5 589.9 95.9 589.4 95.8 588.9 95.9 588.5 96.2 588.4 96.4 588.4 96.4 588.4 96.4L578.2 111.9 571.9 113.3 575.3 108.1C575.6 107.4 575.5 106.9 575 106.4 574.5 106.2 573.9 106.2 573.5 106.5 573.4 106.7 573.4 106.7 573.2 106.8L568.6 114.1 562.3 115.5 564.2 109.4 571.8 105.3C572.4 105 572.6 104.2 572.5 103.7 572 103.2 571.4 102.8 570.9 103.3L565.4 106.1 567.1 99.8 583.7 91.3C584.2 91.1 584.4 90.3 584.3 89.8 583.8 89.3 583.1 88.9 582.5 89.2L568.2 96.6 570.7 89 576.9 85.9C577.6 85.6 577.8 84.8 577.3 84.3 577.2 83.8 576.5 83.4 575.9 83.7L571.7 86 573.4 80.3C573.6 79.8 573.3 79.2 572.6 78.8 572.3 78.8 571.8 78.9 571.5 79.3 571.5 79.3 571.3 79.4 571.1 79.6L569.4 85.2 567.1 81C567 80.5 566.2 80.3 565.7 80.5 565.5 80.6 565.5 80.6 565.5 80.6 565 81.1 565 81.7 565.3 82.1L568.5 88.3 566.1 96 558.6 81.6C558.1 81.1 557.7 80.9 557 81.2 557 81.2 556.8 81.4 556.8 81.4 556.5 81.7 556.3 82.2 556.6 82.8L565 99.2 563.1 105.4 560.2 99.9C559.8 99.3 559.1 99 558.6 99.5 558.5 99.3 558.3 99.4 558.3 99.4 558 99.8 557.9 100.4 558.1 100.9L562.2 108.4 560.1 114.7 555.7 110 556.1 101.5C556.1 100.8 555.5 100.1 554.8 100.1 554.3 100.2 553.8 100.7 553.6 101.2L553.5 107.6 549 102.6 549.8 84.3C549.8 83.7 549.4 83.2 548.7 83.1 548.1 83.1 547.6 83.6 547.5 84.2L546.8 100.2 541.4 94.3 541.7 87.4C541.7 86.8 541.2 86.2 540.6 86.2S539.4 86.6 539.4 87.3L539.2 91.9 535.3 87.6C534.8 87.1 534.2 87.1 533.6 87.5 533.1 88 533.1 88.7 533.6 89.2L537.5 93.4 532.7 93.4C532.4 93.4 532.1 93.4 531.9 93.5 531.7 93.7 531.5 94.1 531.5 94.5 531.5 95.1 532 95.6 532.6 95.7L539.7 95.8 545.1 101.8 528.9 101.2C528.6 101.2 528.3 101.2 528.1 101.4 527.9 101.5 527.8 102 527.7 102.3 527.7 103 528.2 103.5 528.8 103.5L547.3 104.2 551.8 109.1 545.5 108.7C545.1 108.7 544.8 109 544.6 109.1 544.4 109.3 544.3 109.4 544.3 109.8 544.2 110.4 544.9 111.1 545.4 111L554 111.5 558.4 116.3 551.9 117.8 544.8 113.1C544.3 112.9 543.6 112.8 543.3 113.2 543.1 113.3 543.1 113.3 543.3 113.5 542.8 114 542.9 114.8 543.5 115.1L548.8 118.5 542.3 120 526.8 109.8C526.3 109.6 525.8 109.8 525.4 110.1 525.3 110.2 525.3 110.2 525.3 110.2 524.9 110.9 524.9 111.5 525.5 111.9L539.2 120.7 531.3 122.3 525.4 118.6C524.7 118.2 524.2 118.4 523.9 118.7 523.9 118.7 523.7 118.8 523.7 118.8 523.4 119.5 523.7 120.1 524 120.5L528.1 122.9 522.3 124.2C522.2 124.3 522 124.5 521.8 124.6 521.7 124.8 521.5 125.3 521.5 125.6 521.8 126.3 522.2 126.8 522.9 126.5L528.7 125.3 526 129.2C525.7 129.9 526 130.5 526.3 130.9 526.9 131.2 527.6 130.9 528.1 130.5L531.8 124.6 539.6 122.8 531 136.3C530.6 137 530.7 137.8 531.2 138 531.9 138.3 532.5 138.4 532.9 137.7Z" fill="rgba(51, 121, 194, 0.58)"></path><path d="M925.6 174L927.9 140.6 934.8 134.4 954.3 141 956.3 150.2 937.5 178C937.4 178.4 937.4 178.4 937.3 178.8 937 179.5 937.1 180.4 938.1 181.2 939.3 181.6 940.2 181.5 941 180.4L957.3 156.1 960.2 170.3 953.1 181.1C953.1 181.1 953 181.5 953 181.5 952.7 182.3 952.8 183.2 953.9 183.9 954.5 184.6 955.9 184.2 956.7 183.2L961.6 176.3 963.6 186.8C963.7 187.7 964.7 188.5 966 188.5S967.8 186.9 967.8 185.7L965.7 175.5 972.7 180.1C973.7 180.8 975.1 180.4 975.9 179.4 976.1 178.7 976.1 177.4 975.1 176.6L964.3 169.5 961.5 154.9 985.9 171.3C986.9 172.1 988.3 171.7 989 171 989.3 169.9 989.4 168.6 988.3 167.8L960.4 149.4 958.5 139.8 973.7 126.6 982.9 129.7 998 159.6C998.5 160.6 999.6 161 1000.6 160.5S1002.1 158.8 1001.5 157.8L988.2 131.5 1002.4 136.3 1008 147.6C1008.5 148.6 1009.6 149 1011.1 148.6S1012.5 147 1012 145.9L1007.8 138.1 1018.1 141.6C1019.3 142 1020.4 141.1 1020.8 140 1021.2 138.8 1020.7 137.8 1019.5 137.4L1009.2 133.9 1016.9 130.1C1018.3 129.7 1018.7 128.6 1017.8 127.4 1017.3 126.4 1016.1 126 1015.1 126.5L1003.8 132.1 989.7 127.3 1016.2 114.5C1017.2 114 1017.7 112.5 1017.2 111.4S1015.6 110 1014.5 110.5L984.3 125.5 975.1 122.4 971.2 102.3 978.4 96.2 1011.8 98.5C1013 98.5 1013.8 97.5 1014.2 96.3 1014.2 95 1013.2 94.3 1012 93.9L982.8 92.1 993.7 82.6 1006.6 83.5C1007.9 83.5 1008.6 82.5 1009 81.3 1008.9 80.4 1008 79.3 1006.7 79.3L998.4 78.6 1006.4 71.5C1007 70.8 1007 69.6 1006.5 68.5 1005.5 67.8 1004.2 67.8 1003.6 68.4L995.6 75.5 996 66.7C995.9 65.8 995 64.7 994.1 64.8 993 64.4 992.3 65 991.9 66.2 991.9 66.2 991.8 66.6 991.8 66.6L990.9 79.5 980 89 981.7 59.7C981.7 58.5 981.2 57.4 980 57.4 978.7 57.4 978 58.1 977.8 58.8 977.7 59.2 977.7 59.2 977.7 59.2L975.6 93.1 968.4 99.2 948.9 92.6 947.2 83.5 965.8 55.2C966.4 54.6 966 53.2 965.4 52.5 964.4 51.7 963 52.1 962.2 53.1L945.9 77.5 943 63.3 950.1 52.4C950.8 51.4 950.8 50.1 949.7 49.8 948.7 49 947.3 49.4 946.6 50L942 57.4 940 46.9C939.5 45.9 938.4 45.1 937.2 45.1 936.7 45.4 936 46 935.8 46.8 935.6 47.1 935.6 47.1 935.9 47.7L937.9 58.2 930.5 53.5C929.5 52.7 928.4 53.3 927.8 53.9 927.7 54.3 927.7 54.3 927.5 54.7 927.3 55.4 927.4 56.3 928 57L938.9 64 941.8 78.2 917.4 61.9C916.3 61.5 915 61.5 914.6 62.7 914.1 62.9 914.1 62.9 913.9 63.3 913.7 64.1 914.2 65.1 914.8 65.7L943.1 84.3 944.8 93.4 929.5 107 920.7 104 905.7 73.8C905.2 72.7 903.7 72.2 902.6 72.7S901.1 74.8 901.6 75.8L914.9 102.1 901.1 97.4 895.2 86C894.7 85 893.5 84.6 892.5 85.1 891.5 85.6 891.1 86.7 891.6 87.8L895.4 95.5 885 92C884.3 91.7 882.9 92.1 882.5 93.2 882.1 94.4 882.9 95.9 883.6 96.2L894 99.7 886.3 103.5C885.8 103.7 885.3 104 885.1 104.4 884.9 105.1 885.1 105.6 885.4 106.2 885.9 107.2 887 107.6 888.1 107.1L899.7 101.6 913.5 106.3 887 119.1C886.5 119.3 886.3 119.7 886.1 120.5 886 120.9 885.8 121.2 886.1 121.8 886.6 122.8 888.1 123.3 889.1 122.8L919.3 108.2 928.1 111.2 932.1 130.9 925.1 137.5 891.4 135.1C890.5 135.2 889.5 135.7 889.2 136.5 889.1 136.9 889.1 136.9 889.5 137 889.1 138.1 890 139.3 891.2 139.3L920.5 141.1 909.5 151 896.6 150.1C895.7 150.2 895 150.8 894.8 151.6 894.8 151.6 894.6 152 894.6 152 894.3 153.1 895.2 154.3 896.4 154.3L905.3 154.7 897.3 161.8C896.8 162.1 896.7 162.5 896.5 162.9 896.3 163.6 896.4 164.5 896.8 164.7 897.7 165.8 898.9 165.8 900 165.3L907.9 158.2 907.3 166.5C907.2 167.8 908.1 168.9 909.4 168.9 910.3 168.8 911.5 167.9 911.3 167L912.3 154.1 923.2 144.6 921.4 173.8C921.4 175.1 922.4 175.9 923.6 176.3 924.5 176.1 925.6 175.3 925.6 174ZM953.4 136L938.5 130.9 936.2 130.2 935.7 127.8 932.7 112.7 932.3 110.1 934.1 108.5 945.6 98.3 947.4 96.8 949.7 97.6 964.7 102.6 967 103.4 967.5 105.7 970.5 120.8 971 123.1 969.1 125 957.5 135.2 955.7 136.8 953.4 136Z" fill="rgba(51, 121, 194, 0.58)"></path><path d="M979.6 596.3L982.5 577.4 986.7 574.2 997.5 578.9 998.2 584.3 986.1 599.2C986 599.4 986 599.4 985.9 599.6 985.8 600 985.8 600.5 986.3 601 987 601.3 987.5 601.3 988 600.7L998.5 587.7 999.4 595.9 994.8 601.7C994.8 601.7 994.8 601.9 994.8 601.9 994.6 602.4 994.6 602.9 995.1 603.4 995.5 603.8 996.3 603.6 996.8 603.1L999.9 599.4 1000.5 605.5C1000.6 606 1001.1 606.5 1001.8 606.5S1002.9 605.8 1003 605L1002.3 599.2 1006 602.1C1006.6 602.6 1007.4 602.4 1007.9 601.9 1008.1 601.5 1008.1 600.7 1007.6 600.2L1001.8 595.7 1000.9 587.2 1014 597.7C1014.5 598.2 1015.4 598.1 1015.8 597.8 1016 597.1 1016.1 596.4 1015.6 595.9L1000.6 584 1000 578.5 1009.3 571.7 1014.3 573.9 1021.5 591.7C1021.7 592.3 1022.3 592.6 1022.9 592.3S1023.8 591.5 1023.6 590.8L1017.3 575.2 1025.1 578.7 1027.8 585.4C1028 586 1028.6 586.2 1029.4 586.1S1030.3 585.2 1030.1 584.6L1028.1 580 1033.8 582.5C1034.5 582.7 1035.2 582.3 1035.4 581.7 1035.7 581 1035.5 580.4 1034.8 580.1L1029.1 577.6 1033.7 575.8C1034.5 575.7 1034.8 575.1 1034.3 574.4 1034.1 573.8 1033.5 573.5 1032.9 573.7L1026.2 576.3 1018.3 572.9 1034.1 566.9C1034.7 566.7 1035 565.8 1034.8 565.2S1033.9 564.3 1033.3 564.6L1015.4 571.6 1010.3 569.4 1009.1 557.7 1013.5 554.6 1032.3 557.6C1033.1 557.7 1033.6 557.1 1033.8 556.5 1033.9 555.8 1033.4 555.3 1032.7 555L1016.2 552.5 1022.8 547.6 1030.1 548.8C1030.9 548.9 1031.4 548.3 1031.6 547.7 1031.6 547.2 1031.2 546.5 1030.4 546.4L1025.7 545.6 1030.6 542C1031 541.6 1031.1 540.9 1030.9 540.3 1030.3 539.8 1029.6 539.7 1029.2 540.1L1024.3 543.7 1025 538.7C1024.9 538.2 1024.5 537.5 1024 537.5 1023.3 537.2 1023 537.6 1022.7 538.2 1022.7 538.2 1022.6 538.4 1022.6 538.4L1021.4 545.7 1014.7 550.6 1017.2 534C1017.2 533.3 1017 532.7 1016.3 532.6 1015.6 532.6 1015.2 532.9 1015 533.3 1014.9 533.5 1014.9 533.5 1014.9 533.5L1012 552.7 1007.6 555.8 996.8 551.1 996.4 545.9 1008.3 530.7C1008.7 530.3 1008.6 529.5 1008.2 529.1 1007.7 528.6 1006.9 528.8 1006.4 529.3L995.9 542.4 994.9 534.1 999.5 528.3C1000 527.8 1000.1 527 999.4 526.8 998.9 526.3 998.1 526.4 997.7 526.8L994.7 530.7 994 524.7C993.8 524.1 993.3 523.6 992.5 523.5 992.2 523.6 991.8 523.9 991.6 524.4 991.6 524.6 991.6 524.6 991.7 524.9L992.3 531 988.3 528C987.8 527.5 987.2 527.7 986.8 528 986.7 528.2 986.7 528.2 986.6 528.5 986.4 528.9 986.4 529.4 986.7 529.8L992.6 534.4 993.5 542.6 980.4 532.1C979.8 531.8 979.1 531.7 978.8 532.4 978.5 532.5 978.5 532.5 978.4 532.7 978.2 533.1 978.5 533.7 978.8 534.1L994 546.1 994.5 551.3 985.1 558.3 980.2 556.2 973.2 538.2C973 537.6 972.1 537.3 971.5 537.5S970.5 538.6 970.8 539.2L977 554.8 969.4 551.5 966.6 544.7C966.4 544.1 965.7 543.8 965.1 544 964.5 544.3 964.2 544.9 964.5 545.5L966.3 550.1 960.5 547.6C960.1 547.4 959.3 547.5 959 548.2 958.7 548.8 959.1 549.7 959.5 549.9L965.2 552.4 960.7 554.2C960.4 554.3 960.1 554.4 960 554.6 959.8 555.1 959.9 555.4 960 555.7 960.3 556.3 960.9 556.6 961.5 556.3L968.4 553.8 976 557.1 960.3 563.1C960 563.2 959.9 563.4 959.7 563.9 959.6 564.1 959.5 564.3 959.6 564.6 959.9 565.2 960.7 565.6 961.3 565.3L979.2 558.5 984.1 560.7 985.4 572.1 981.1 575.5 962 572.4C961.5 572.5 960.9 572.7 960.7 573.1 960.6 573.3 960.6 573.3 960.8 573.4 960.5 574.1 961 574.8 961.7 574.8L978.3 577.3 971.5 582.4 964.2 581.2C963.7 581.3 963.3 581.6 963.1 582 963.1 582 963 582.2 963 582.2 962.7 582.9 963.2 583.6 963.9 583.6L968.9 584.3 964 588C963.7 588.1 963.6 588.3 963.5 588.5 963.4 588.9 963.4 589.4 963.6 589.5 964 590.2 964.8 590.3 965.4 590.1L970.3 586.4 969.5 591.1C969.4 591.8 969.9 592.5 970.6 592.6 971.1 592.6 971.8 592.1 971.8 591.6L973 584.3 979.6 579.4 977.2 596C977.1 596.7 977.6 597.2 978.3 597.5 978.8 597.5 979.5 597 979.6 596.3ZM997.3 576L989 572.4 987.7 571.9 987.6 570.5 986.6 561.8 986.5 560.2 987.6 559.4 994.7 554.2 995.8 553.4 997.1 554 1005.3 557.6 1006.6 558.2 1006.8 559.5 1007.7 568.3 1007.9 569.6 1006.7 570.6 999.6 575.8 998.5 576.6 997.3 576Z" fill="rgba(51, 121, 194, 0.58)"></path><path d="M690.9 486.1L671.4 465 671.6 457.1 687.2 448.8 694.1 453 700.4 481.1C700.5 481.4 700.5 481.4 700.7 481.7 701 482.3 701.6 482.7 702.7 482.6 703.6 482.1 704.1 481.4 703.9 480.4L698.4 455.8 708.9 462.4 711.5 473.2C711.5 473.2 711.7 473.5 711.7 473.5 712 474.1 712.6 474.6 713.7 474.4 714.5 474.4 715.1 473.3 714.9 472.2L713.5 465.1 721.2 470C721.8 470.5 722.9 470.3 723.7 469.5S723.8 467.5 723 466.7L715.4 462.1 722.3 460.4C723.4 460.2 724 459.1 723.8 458 723.5 457.4 722.7 456.7 721.6 456.8L710.8 459.4 700.1 452.5 724.7 447C725.7 446.8 726.3 445.7 726.3 444.9 725.8 444 725 443.3 724 443.4L696 450 689 445.5 689.6 428.3 697 424.4 724.5 432.6C725.4 432.9 726.3 432.4 726.6 431.4S726.4 429.6 725.5 429.3L701.3 422.1 712.6 416.1 722.9 419.3C723.8 419.6 724.8 419.1 725.4 418S725.2 416.1 724.2 415.8L716.9 413.8 725.1 409.4C726.1 409 726.2 407.7 725.7 406.8 725.2 405.9 724.3 405.6 723.4 406.1L715.1 410.5 717.2 403.4C717.8 402.3 717.4 401.4 716.1 401.3 715.2 401 714.3 401.5 714 402.4L710.8 412.7 699.5 418.8 707.1 394.7C707.4 393.7 706.8 392.5 705.8 392.2S704 392.4 703.7 393.4L695.2 421 687.8 424.9 673 415.5 673.5 407.4 694.5 388C695.3 387.2 695.1 386.1 694.6 385.2 693.8 384.5 692.8 384.6 691.8 385.1L673.5 402.3 674 389.9 682.2 382.4C682.9 381.6 682.7 380.5 682.2 379.6 681.6 379.2 680.4 379 679.6 379.8L674.3 384.6 674.5 375.5C674.5 374.7 673.7 373.9 672.8 373.6 671.7 373.8 671 374.6 671 375.4L670.7 384.6 665.5 379.1C664.9 378.6 663.6 378.5 663.2 379.2 662.2 379.6 662.3 380.4 662.7 381.3 662.7 381.3 662.9 381.6 662.9 381.6L670.4 389.8 669.9 402.3 652.7 383.9C651.9 383.1 651 382.9 650.2 383.7 649.5 384.4 649.5 385.2 649.8 385.8 650 386.1 650 386.1 650 386.1L669.9 407.4 669.5 415.4 653.8 423.7 647.2 419.4 640.5 391.2C640.5 390.4 639.4 389.8 638.6 389.8 637.5 390 636.9 391.1 637.1 392.2L642.7 416.7 632.1 410.1 629.5 399.4C629.4 398.3 628.6 397.5 627.6 398 626.6 398.2 626 399.3 626 400.1L627.9 407.3 620.1 402.4C619.2 402.1 618.1 402.3 617.4 403.1 617.2 403.5 617.2 404.3 617.6 404.9 617.7 405.2 617.7 405.2 618.2 405.4L625.9 410.3 618.7 412.2C617.6 412.4 617.3 413.3 617.3 414.1 617.5 414.4 617.5 414.4 617.7 414.7 618 415.3 618.6 415.7 619.4 415.7L630.2 413.1 640.7 419.7 616.2 425.3C615.3 425.8 614.5 426.5 615 427.5 614.9 427.9 614.9 427.9 615 428.2 615.4 428.9 616.3 429.1 617.1 429.1L645.3 422.4 651.9 426.7 651.4 444.3 644.4 448 616.7 439.5C615.8 439.2 614.5 439.9 614.3 440.8S614.6 443 615.6 443.3L639.8 450.4 628.7 456.3 618.1 453.3C617.2 453 616.3 453.5 616 454.4 615.7 455.4 616.2 456.3 617.1 456.6L624.1 458.7 615.9 463.1C615.3 463.4 614.7 464.5 615.2 465.5 615.6 466.4 617 466.8 617.7 466.5L625.9 462.1 623.8 469.1C623.6 469.6 623.5 470.1 623.6 470.4 624 471 624.4 471.1 624.9 471.3 625.8 471.6 626.8 471.1 627.1 470.1L630.5 459.7 641.5 453.8 633.9 477.9C633.8 478.3 633.9 478.6 634.3 479.3 634.4 479.6 634.6 479.9 635 480 636 480.3 637.2 479.7 637.5 478.7L646.1 451.4 653.2 447.6 667.8 456.7 667.9 465 646.5 484.5C646 485.2 645.7 486.1 646.1 486.7 646.2 487 646.2 487 646.5 486.9 647 487.8 648.3 487.9 649 487.1L667.4 469.9 667.1 482.7 658.9 490.1C658.4 490.8 658.4 491.5 658.8 492.2 658.8 492.2 658.9 492.5 658.9 492.5 659.4 493.4 660.7 493.5 661.4 492.7L666.9 487.5 666.6 496.6C666.5 497.1 666.6 497.4 666.8 497.7 667.1 498.3 667.8 498.8 668.1 498.6 669.3 498.7 670.1 497.9 670.4 497L670.6 487.8 675.4 493.2C676.2 493.9 677.4 494 678.2 493.2 678.6 492.6 678.7 491.4 678.1 490.9L670.6 482.7 671.1 470.3 688.3 488.7C689.1 489.4 690.2 489.2 691.1 488.7 691.5 488.1 691.7 486.9 690.9 486.1ZM683.6 446.4L671.6 452.8 669.8 453.7 668 452.7 656.9 445.7 655 444.3 655.1 442.3 655.5 429.1 655.6 427.1 657.5 426.1 669.4 419.8 671.3 418.8 673 419.9 684.2 426.9 685.9 427.9 686 430.2 685.5 443.4 685.4 445.5 683.6 446.4Z" fill="rgba(51, 121, 194, 0.58)"></path></g><defs><mask id="SvgjsMask1092"><rect width="1040" height="620" fill="#ffffff"></rect></mask><filter id="SvgjsFilter1093"><feGaussianBlur stdDeviation="1"></feGaussianBlur></filter></defs></svg>