<svg xmlns="http://www.w3.org/2000/svg" version="1.1" xmlns:xlink="http://www.w3.org/1999/xlink" xmlns:svgjs="http://svgjs.com/svgjs" width="1920" height="1080" preserveAspectRatio="none" viewBox="0 0 1920 1080"><g mask="url(&quot;#SvgjsMask1702&quot;)" fill="none"><rect width="1920" height="1080" x="0" y="0" fill="#0e2a47"></rect><g transform="translate(0, 0)"><use xlink:href="#SvgjsPath1703" x="302" y="540" fill="#3a7cc3"></use><use xlink:href="#SvgjsPath1704" x="330" y="540" fill="#3a7cc3"></use><use xlink:href="#SvgjsPath1705" x="358" y="540" fill="#dd1133"></use><use xlink:href="#SvgjsPath1706" x="386" y="540" fill="#3a7cc3"></use><use xlink:href="#SvgjsPath1703" x="414" y="540" fill="#3a7cc3"></use><use xlink:href="#SvgjsPath1707" x="442" y="540" fill="#3a7cc3"></use><use xlink:href="#SvgjsPath1705" x="470" y="540" fill="#3a7cc3"></use><use xlink:href="#SvgjsPath1708" x="498" y="540" fill="#3a7cc3"></use><use xlink:href="#SvgjsPath1703" x="526" y="540" fill="#3a7cc3"></use><use xlink:href="#SvgjsPath1709" x="554" y="540" fill="#dd1133"></use><use xlink:href="#SvgjsPath1706" x="582" y="540" fill="#3a7cc3"></use><use xlink:href="#SvgjsPath1703" x="610" y="540" fill="#dd1133"></use><use xlink:href="#SvgjsPath1703" x="638" y="540" fill="#3a7cc3"></use><use xlink:href="#SvgjsPath1703" x="666" y="540" fill="#3a7cc3"></use><use xlink:href="#SvgjsPath1710" x="694" y="540" fill="#dd1133"></use><use xlink:href="#SvgjsPath1709" x="722" y="540" fill="#dd1133"></use><use xlink:href="#SvgjsPath1711" x="750" y="540" fill="#dd1133"></use><use xlink:href="#SvgjsPath1704" x="778" y="540" fill="#dd1133"></use><use xlink:href="#SvgjsPath1712" x="806" y="540" fill="#3a7cc3"></use><use xlink:href="#SvgjsPath1706" x="834" y="540" fill="#3a7cc3"></use><use xlink:href="#SvgjsPath1710" x="862" y="540" fill="#dd1133"></use><use xlink:href="#SvgjsPath1713" x="890" y="540" fill="#dd1133"></use><use xlink:href="#SvgjsPath1714" x="918" y="540" fill="#dd1133"></use><use xlink:href="#SvgjsPath1707" x="946" y="540" fill="#dd1133"></use><use xlink:href="#SvgjsPath1705" x="974" y="540" fill="#dd1133"></use><use xlink:href="#SvgjsPath1715" x="1002" y="540" fill="#dd1133"></use><use xlink:href="#SvgjsPath1713" x="1030" y="540" fill="#dd1133"></use><use xlink:href="#SvgjsPath1713" x="1058" y="540" fill="#3a7cc3"></use><use xlink:href="#SvgjsPath1708" x="1086" y="540" fill="#dd1133"></use><use xlink:href="#SvgjsPath1711" x="1114" y="540" fill="#dd1133"></use><use xlink:href="#SvgjsPath1715" x="1142" y="540" fill="#dd1133"></use><use xlink:href="#SvgjsPath1706" x="1170" y="540" fill="#dd1133"></use><use xlink:href="#SvgjsPath1707" x="1198" y="540" fill="#3a7cc3"></use><use xlink:href="#SvgjsPath1706" x="1226" y="540" fill="#3a7cc3"></use><use xlink:href="#SvgjsPath1715" x="1254" y="540" fill="#dd1133"></use><use xlink:href="#SvgjsPath1703" x="1282" y="540" fill="#dd1133"></use><use xlink:href="#SvgjsPath1705" x="1310" y="540" fill="#dd1133"></use><use xlink:href="#SvgjsPath1711" x="1338" y="540" fill="#3a7cc3"></use><use xlink:href="#SvgjsPath1713" x="1366" y="540" fill="#3a7cc3"></use><use xlink:href="#SvgjsPath1703" x="1394" y="540" fill="#dd1133"></use><use xlink:href="#SvgjsPath1711" x="1422" y="540" fill="#3a7cc3"></use><use xlink:href="#SvgjsPath1704" x="1450" y="540" fill="#dd1133"></use><use xlink:href="#SvgjsPath1704" x="1478" y="540" fill="#dd1133"></use><use xlink:href="#SvgjsPath1714" x="1506" y="540" fill="#3a7cc3"></use><use xlink:href="#SvgjsPath1709" x="1534" y="540" fill="#dd1133"></use><use xlink:href="#SvgjsPath1707" x="1562" y="540" fill="#3a7cc3"></use><use xlink:href="#SvgjsPath1708" x="1590" y="540" fill="#3a7cc3"></use><use xlink:href="#SvgjsPath1706" x="1618" y="540" fill="#dd1133"></use></g></g><defs><mask id="SvgjsMask1702"><rect width="1920" height="1080" fill="#ffffff"></rect></mask><path d="M-11.2 0 a11.2 11.2 0 1 0 22.4 0 a11.2 11.2 0 1 0 -22.4 0zM-11.2 28 a11.2 11.2 0 1 0 22.4 0 a11.2 11.2 0 1 0 -22.4 0zM-11.2 -28 a11.2 11.2 0 1 0 22.4 0 a11.2 11.2 0 1 0 -22.4 0z" id="SvgjsPath1714"></path><path d="M-11.2 0 a11.2 11.2 0 1 0 22.4 0 a11.2 11.2 0 1 0 -22.4 0zM-11.2 28 a11.2 11.2 0 1 0 22.4 0 a11.2 11.2 0 1 0 -22.4 0zM-11.2 -28 a11.2 11.2 0 1 0 22.4 0 a11.2 11.2 0 1 0 -22.4 0zM-11.2 56 a11.2 11.2 0 1 0 22.4 0 a11.2 11.2 0 1 0 -22.4 0zM-11.2 -56 a11.2 11.2 0 1 0 22.4 0 a11.2 11.2 0 1 0 -22.4 0z" id="SvgjsPath1706"></path><path d="M-11.2 0 a11.2 11.2 0 1 0 22.4 0 a11.2 11.2 0 1 0 -22.4 0zM-11.2 28 a11.2 11.2 0 1 0 22.4 0 a11.2 11.2 0 1 0 -22.4 0zM-11.2 -28 a11.2 11.2 0 1 0 22.4 0 a11.2 11.2 0 1 0 -22.4 0zM-11.2 56 a11.2 11.2 0 1 0 22.4 0 a11.2 11.2 0 1 0 -22.4 0zM-11.2 -56 a11.2 11.2 0 1 0 22.4 0 a11.2 11.2 0 1 0 -22.4 0zM-11.2 84 a11.2 11.2 0 1 0 22.4 0 a11.2 11.2 0 1 0 -22.4 0zM-11.2 -84 a11.2 11.2 0 1 0 22.4 0 a11.2 11.2 0 1 0 -22.4 0z" id="SvgjsPath1712"></path><path d="M-11.2 0 a11.2 11.2 0 1 0 22.4 0 a11.2 11.2 0 1 0 -22.4 0zM-11.2 28 a11.2 11.2 0 1 0 22.4 0 a11.2 11.2 0 1 0 -22.4 0zM-11.2 -28 a11.2 11.2 0 1 0 22.4 0 a11.2 11.2 0 1 0 -22.4 0zM-11.2 56 a11.2 11.2 0 1 0 22.4 0 a11.2 11.2 0 1 0 -22.4 0zM-11.2 -56 a11.2 11.2 0 1 0 22.4 0 a11.2 11.2 0 1 0 -22.4 0zM-11.2 84 a11.2 11.2 0 1 0 22.4 0 a11.2 11.2 0 1 0 -22.4 0zM-11.2 -84 a11.2 11.2 0 1 0 22.4 0 a11.2 11.2 0 1 0 -22.4 0zM-11.2 112 a11.2 11.2 0 1 0 22.4 0 a11.2 11.2 0 1 0 -22.4 0zM-11.2 -112 a11.2 11.2 0 1 0 22.4 0 a11.2 11.2 0 1 0 -22.4 0z" id="SvgjsPath1715"></path><path d="M-11.2 0 a11.2 11.2 0 1 0 22.4 0 a11.2 11.2 0 1 0 -22.4 0zM-11.2 28 a11.2 11.2 0 1 0 22.4 0 a11.2 11.2 0 1 0 -22.4 0zM-11.2 -28 a11.2 11.2 0 1 0 22.4 0 a11.2 11.2 0 1 0 -22.4 0zM-11.2 56 a11.2 11.2 0 1 0 22.4 0 a11.2 11.2 0 1 0 -22.4 0zM-11.2 -56 a11.2 11.2 0 1 0 22.4 0 a11.2 11.2 0 1 0 -22.4 0zM-11.2 84 a11.2 11.2 0 1 0 22.4 0 a11.2 11.2 0 1 0 -22.4 0zM-11.2 -84 a11.2 11.2 0 1 0 22.4 0 a11.2 11.2 0 1 0 -22.4 0zM-11.2 112 a11.2 11.2 0 1 0 22.4 0 a11.2 11.2 0 1 0 -22.4 0zM-11.2 -112 a11.2 11.2 0 1 0 22.4 0 a11.2 11.2 0 1 0 -22.4 0zM-11.2 140 a11.2 11.2 0 1 0 22.4 0 a11.2 11.2 0 1 0 -22.4 0zM-11.2 -140 a11.2 11.2 0 1 0 22.4 0 a11.2 11.2 0 1 0 -22.4 0z" id="SvgjsPath1705"></path><path d="M-11.2 0 a11.2 11.2 0 1 0 22.4 0 a11.2 11.2 0 1 0 -22.4 0zM-11.2 28 a11.2 11.2 0 1 0 22.4 0 a11.2 11.2 0 1 0 -22.4 0zM-11.2 -28 a11.2 11.2 0 1 0 22.4 0 a11.2 11.2 0 1 0 -22.4 0zM-11.2 56 a11.2 11.2 0 1 0 22.4 0 a11.2 11.2 0 1 0 -22.4 0zM-11.2 -56 a11.2 11.2 0 1 0 22.4 0 a11.2 11.2 0 1 0 -22.4 0zM-11.2 84 a11.2 11.2 0 1 0 22.4 0 a11.2 11.2 0 1 0 -22.4 0zM-11.2 -84 a11.2 11.2 0 1 0 22.4 0 a11.2 11.2 0 1 0 -22.4 0zM-11.2 112 a11.2 11.2 0 1 0 22.4 0 a11.2 11.2 0 1 0 -22.4 0zM-11.2 -112 a11.2 11.2 0 1 0 22.4 0 a11.2 11.2 0 1 0 -22.4 0zM-11.2 140 a11.2 11.2 0 1 0 22.4 0 a11.2 11.2 0 1 0 -22.4 0zM-11.2 -140 a11.2 11.2 0 1 0 22.4 0 a11.2 11.2 0 1 0 -22.4 0zM-11.2 168 a11.2 11.2 0 1 0 22.4 0 a11.2 11.2 0 1 0 -22.4 0zM-11.2 -168 a11.2 11.2 0 1 0 22.4 0 a11.2 11.2 0 1 0 -22.4 0z" id="SvgjsPath1704"></path><path d="M-11.2 0 a11.2 11.2 0 1 0 22.4 0 a11.2 11.2 0 1 0 -22.4 0zM-11.2 28 a11.2 11.2 0 1 0 22.4 0 a11.2 11.2 0 1 0 -22.4 0zM-11.2 -28 a11.2 11.2 0 1 0 22.4 0 a11.2 11.2 0 1 0 -22.4 0zM-11.2 56 a11.2 11.2 0 1 0 22.4 0 a11.2 11.2 0 1 0 -22.4 0zM-11.2 -56 a11.2 11.2 0 1 0 22.4 0 a11.2 11.2 0 1 0 -22.4 0zM-11.2 84 a11.2 11.2 0 1 0 22.4 0 a11.2 11.2 0 1 0 -22.4 0zM-11.2 -84 a11.2 11.2 0 1 0 22.4 0 a11.2 11.2 0 1 0 -22.4 0zM-11.2 112 a11.2 11.2 0 1 0 22.4 0 a11.2 11.2 0 1 0 -22.4 0zM-11.2 -112 a11.2 11.2 0 1 0 22.4 0 a11.2 11.2 0 1 0 -22.4 0zM-11.2 140 a11.2 11.2 0 1 0 22.4 0 a11.2 11.2 0 1 0 -22.4 0zM-11.2 -140 a11.2 11.2 0 1 0 22.4 0 a11.2 11.2 0 1 0 -22.4 0zM-11.2 168 a11.2 11.2 0 1 0 22.4 0 a11.2 11.2 0 1 0 -22.4 0zM-11.2 -168 a11.2 11.2 0 1 0 22.4 0 a11.2 11.2 0 1 0 -22.4 0zM-11.2 196 a11.2 11.2 0 1 0 22.4 0 a11.2 11.2 0 1 0 -22.4 0zM-11.2 -196 a11.2 11.2 0 1 0 22.4 0 a11.2 11.2 0 1 0 -22.4 0z" id="SvgjsPath1708"></path><path d="M-11.2 0 a11.2 11.2 0 1 0 22.4 0 a11.2 11.2 0 1 0 -22.4 0zM-11.2 28 a11.2 11.2 0 1 0 22.4 0 a11.2 11.2 0 1 0 -22.4 0zM-11.2 -28 a11.2 11.2 0 1 0 22.4 0 a11.2 11.2 0 1 0 -22.4 0zM-11.2 56 a11.2 11.2 0 1 0 22.4 0 a11.2 11.2 0 1 0 -22.4 0zM-11.2 -56 a11.2 11.2 0 1 0 22.4 0 a11.2 11.2 0 1 0 -22.4 0zM-11.2 84 a11.2 11.2 0 1 0 22.4 0 a11.2 11.2 0 1 0 -22.4 0zM-11.2 -84 a11.2 11.2 0 1 0 22.4 0 a11.2 11.2 0 1 0 -22.4 0zM-11.2 112 a11.2 11.2 0 1 0 22.4 0 a11.2 11.2 0 1 0 -22.4 0zM-11.2 -112 a11.2 11.2 0 1 0 22.4 0 a11.2 11.2 0 1 0 -22.4 0zM-11.2 140 a11.2 11.2 0 1 0 22.4 0 a11.2 11.2 0 1 0 -22.4 0zM-11.2 -140 a11.2 11.2 0 1 0 22.4 0 a11.2 11.2 0 1 0 -22.4 0zM-11.2 168 a11.2 11.2 0 1 0 22.4 0 a11.2 11.2 0 1 0 -22.4 0zM-11.2 -168 a11.2 11.2 0 1 0 22.4 0 a11.2 11.2 0 1 0 -22.4 0zM-11.2 196 a11.2 11.2 0 1 0 22.4 0 a11.2 11.2 0 1 0 -22.4 0zM-11.2 -196 a11.2 11.2 0 1 0 22.4 0 a11.2 11.2 0 1 0 -22.4 0zM-11.2 224 a11.2 11.2 0 1 0 22.4 0 a11.2 11.2 0 1 0 -22.4 0zM-11.2 -224 a11.2 11.2 0 1 0 22.4 0 a11.2 11.2 0 1 0 -22.4 0z" id="SvgjsPath1703"></path><path d="M-11.2 0 a11.2 11.2 0 1 0 22.4 0 a11.2 11.2 0 1 0 -22.4 0zM-11.2 28 a11.2 11.2 0 1 0 22.4 0 a11.2 11.2 0 1 0 -22.4 0zM-11.2 -28 a11.2 11.2 0 1 0 22.4 0 a11.2 11.2 0 1 0 -22.4 0zM-11.2 56 a11.2 11.2 0 1 0 22.4 0 a11.2 11.2 0 1 0 -22.4 0zM-11.2 -56 a11.2 11.2 0 1 0 22.4 0 a11.2 11.2 0 1 0 -22.4 0zM-11.2 84 a11.2 11.2 0 1 0 22.4 0 a11.2 11.2 0 1 0 -22.4 0zM-11.2 -84 a11.2 11.2 0 1 0 22.4 0 a11.2 11.2 0 1 0 -22.4 0zM-11.2 112 a11.2 11.2 0 1 0 22.4 0 a11.2 11.2 0 1 0 -22.4 0zM-11.2 -112 a11.2 11.2 0 1 0 22.4 0 a11.2 11.2 0 1 0 -22.4 0zM-11.2 140 a11.2 11.2 0 1 0 22.4 0 a11.2 11.2 0 1 0 -22.4 0zM-11.2 -140 a11.2 11.2 0 1 0 22.4 0 a11.2 11.2 0 1 0 -22.4 0zM-11.2 168 a11.2 11.2 0 1 0 22.4 0 a11.2 11.2 0 1 0 -22.4 0zM-11.2 -168 a11.2 11.2 0 1 0 22.4 0 a11.2 11.2 0 1 0 -22.4 0zM-11.2 196 a11.2 11.2 0 1 0 22.4 0 a11.2 11.2 0 1 0 -22.4 0zM-11.2 -196 a11.2 11.2 0 1 0 22.4 0 a11.2 11.2 0 1 0 -22.4 0zM-11.2 224 a11.2 11.2 0 1 0 22.4 0 a11.2 11.2 0 1 0 -22.4 0zM-11.2 -224 a11.2 11.2 0 1 0 22.4 0 a11.2 11.2 0 1 0 -22.4 0zM-11.2 252 a11.2 11.2 0 1 0 22.4 0 a11.2 11.2 0 1 0 -22.4 0zM-11.2 -252 a11.2 11.2 0 1 0 22.4 0 a11.2 11.2 0 1 0 -22.4 0z" id="SvgjsPath1707"></path><path d="M-11.2 0 a11.2 11.2 0 1 0 22.4 0 a11.2 11.2 0 1 0 -22.4 0zM-11.2 28 a11.2 11.2 0 1 0 22.4 0 a11.2 11.2 0 1 0 -22.4 0zM-11.2 -28 a11.2 11.2 0 1 0 22.4 0 a11.2 11.2 0 1 0 -22.4 0zM-11.2 56 a11.2 11.2 0 1 0 22.4 0 a11.2 11.2 0 1 0 -22.4 0zM-11.2 -56 a11.2 11.2 0 1 0 22.4 0 a11.2 11.2 0 1 0 -22.4 0zM-11.2 84 a11.2 11.2 0 1 0 22.4 0 a11.2 11.2 0 1 0 -22.4 0zM-11.2 -84 a11.2 11.2 0 1 0 22.4 0 a11.2 11.2 0 1 0 -22.4 0zM-11.2 112 a11.2 11.2 0 1 0 22.4 0 a11.2 11.2 0 1 0 -22.4 0zM-11.2 -112 a11.2 11.2 0 1 0 22.4 0 a11.2 11.2 0 1 0 -22.4 0zM-11.2 140 a11.2 11.2 0 1 0 22.4 0 a11.2 11.2 0 1 0 -22.4 0zM-11.2 -140 a11.2 11.2 0 1 0 22.4 0 a11.2 11.2 0 1 0 -22.4 0zM-11.2 168 a11.2 11.2 0 1 0 22.4 0 a11.2 11.2 0 1 0 -22.4 0zM-11.2 -168 a11.2 11.2 0 1 0 22.4 0 a11.2 11.2 0 1 0 -22.4 0zM-11.2 196 a11.2 11.2 0 1 0 22.4 0 a11.2 11.2 0 1 0 -22.4 0zM-11.2 -196 a11.2 11.2 0 1 0 22.4 0 a11.2 11.2 0 1 0 -22.4 0zM-11.2 224 a11.2 11.2 0 1 0 22.4 0 a11.2 11.2 0 1 0 -22.4 0zM-11.2 -224 a11.2 11.2 0 1 0 22.4 0 a11.2 11.2 0 1 0 -22.4 0zM-11.2 252 a11.2 11.2 0 1 0 22.4 0 a11.2 11.2 0 1 0 -22.4 0zM-11.2 -252 a11.2 11.2 0 1 0 22.4 0 a11.2 11.2 0 1 0 -22.4 0zM-11.2 280 a11.2 11.2 0 1 0 22.4 0 a11.2 11.2 0 1 0 -22.4 0zM-11.2 -280 a11.2 11.2 0 1 0 22.4 0 a11.2 11.2 0 1 0 -22.4 0z" id="SvgjsPath1711"></path><path d="M-11.2 0 a11.2 11.2 0 1 0 22.4 0 a11.2 11.2 0 1 0 -22.4 0zM-11.2 28 a11.2 11.2 0 1 0 22.4 0 a11.2 11.2 0 1 0 -22.4 0zM-11.2 -28 a11.2 11.2 0 1 0 22.4 0 a11.2 11.2 0 1 0 -22.4 0zM-11.2 56 a11.2 11.2 0 1 0 22.4 0 a11.2 11.2 0 1 0 -22.4 0zM-11.2 -56 a11.2 11.2 0 1 0 22.4 0 a11.2 11.2 0 1 0 -22.4 0zM-11.2 84 a11.2 11.2 0 1 0 22.4 0 a11.2 11.2 0 1 0 -22.4 0zM-11.2 -84 a11.2 11.2 0 1 0 22.4 0 a11.2 11.2 0 1 0 -22.4 0zM-11.2 112 a11.2 11.2 0 1 0 22.4 0 a11.2 11.2 0 1 0 -22.4 0zM-11.2 -112 a11.2 11.2 0 1 0 22.4 0 a11.2 11.2 0 1 0 -22.4 0zM-11.2 140 a11.2 11.2 0 1 0 22.4 0 a11.2 11.2 0 1 0 -22.4 0zM-11.2 -140 a11.2 11.2 0 1 0 22.4 0 a11.2 11.2 0 1 0 -22.4 0zM-11.2 168 a11.2 11.2 0 1 0 22.4 0 a11.2 11.2 0 1 0 -22.4 0zM-11.2 -168 a11.2 11.2 0 1 0 22.4 0 a11.2 11.2 0 1 0 -22.4 0zM-11.2 196 a11.2 11.2 0 1 0 22.4 0 a11.2 11.2 0 1 0 -22.4 0zM-11.2 -196 a11.2 11.2 0 1 0 22.4 0 a11.2 11.2 0 1 0 -22.4 0zM-11.2 224 a11.2 11.2 0 1 0 22.4 0 a11.2 11.2 0 1 0 -22.4 0zM-11.2 -224 a11.2 11.2 0 1 0 22.4 0 a11.2 11.2 0 1 0 -22.4 0zM-11.2 252 a11.2 11.2 0 1 0 22.4 0 a11.2 11.2 0 1 0 -22.4 0zM-11.2 -252 a11.2 11.2 0 1 0 22.4 0 a11.2 11.2 0 1 0 -22.4 0zM-11.2 280 a11.2 11.2 0 1 0 22.4 0 a11.2 11.2 0 1 0 -22.4 0zM-11.2 -280 a11.2 11.2 0 1 0 22.4 0 a11.2 11.2 0 1 0 -22.4 0zM-11.2 308 a11.2 11.2 0 1 0 22.4 0 a11.2 11.2 0 1 0 -22.4 0zM-11.2 -308 a11.2 11.2 0 1 0 22.4 0 a11.2 11.2 0 1 0 -22.4 0z" id="SvgjsPath1709"></path><path d="M-11.2 0 a11.2 11.2 0 1 0 22.4 0 a11.2 11.2 0 1 0 -22.4 0zM-11.2 28 a11.2 11.2 0 1 0 22.4 0 a11.2 11.2 0 1 0 -22.4 0zM-11.2 -28 a11.2 11.2 0 1 0 22.4 0 a11.2 11.2 0 1 0 -22.4 0zM-11.2 56 a11.2 11.2 0 1 0 22.4 0 a11.2 11.2 0 1 0 -22.4 0zM-11.2 -56 a11.2 11.2 0 1 0 22.4 0 a11.2 11.2 0 1 0 -22.4 0zM-11.2 84 a11.2 11.2 0 1 0 22.4 0 a11.2 11.2 0 1 0 -22.4 0zM-11.2 -84 a11.2 11.2 0 1 0 22.4 0 a11.2 11.2 0 1 0 -22.4 0zM-11.2 112 a11.2 11.2 0 1 0 22.4 0 a11.2 11.2 0 1 0 -22.4 0zM-11.2 -112 a11.2 11.2 0 1 0 22.4 0 a11.2 11.2 0 1 0 -22.4 0zM-11.2 140 a11.2 11.2 0 1 0 22.4 0 a11.2 11.2 0 1 0 -22.4 0zM-11.2 -140 a11.2 11.2 0 1 0 22.4 0 a11.2 11.2 0 1 0 -22.4 0zM-11.2 168 a11.2 11.2 0 1 0 22.4 0 a11.2 11.2 0 1 0 -22.4 0zM-11.2 -168 a11.2 11.2 0 1 0 22.4 0 a11.2 11.2 0 1 0 -22.4 0zM-11.2 196 a11.2 11.2 0 1 0 22.4 0 a11.2 11.2 0 1 0 -22.4 0zM-11.2 -196 a11.2 11.2 0 1 0 22.4 0 a11.2 11.2 0 1 0 -22.4 0zM-11.2 224 a11.2 11.2 0 1 0 22.4 0 a11.2 11.2 0 1 0 -22.4 0zM-11.2 -224 a11.2 11.2 0 1 0 22.4 0 a11.2 11.2 0 1 0 -22.4 0zM-11.2 252 a11.2 11.2 0 1 0 22.4 0 a11.2 11.2 0 1 0 -22.4 0zM-11.2 -252 a11.2 11.2 0 1 0 22.4 0 a11.2 11.2 0 1 0 -22.4 0zM-11.2 280 a11.2 11.2 0 1 0 22.4 0 a11.2 11.2 0 1 0 -22.4 0zM-11.2 -280 a11.2 11.2 0 1 0 22.4 0 a11.2 11.2 0 1 0 -22.4 0zM-11.2 308 a11.2 11.2 0 1 0 22.4 0 a11.2 11.2 0 1 0 -22.4 0zM-11.2 -308 a11.2 11.2 0 1 0 22.4 0 a11.2 11.2 0 1 0 -22.4 0zM-11.2 336 a11.2 11.2 0 1 0 22.4 0 a11.2 11.2 0 1 0 -22.4 0zM-11.2 -336 a11.2 11.2 0 1 0 22.4 0 a11.2 11.2 0 1 0 -22.4 0z" id="SvgjsPath1713"></path><path d="M-11.2 0 a11.2 11.2 0 1 0 22.4 0 a11.2 11.2 0 1 0 -22.4 0zM-11.2 28 a11.2 11.2 0 1 0 22.4 0 a11.2 11.2 0 1 0 -22.4 0zM-11.2 -28 a11.2 11.2 0 1 0 22.4 0 a11.2 11.2 0 1 0 -22.4 0zM-11.2 56 a11.2 11.2 0 1 0 22.4 0 a11.2 11.2 0 1 0 -22.4 0zM-11.2 -56 a11.2 11.2 0 1 0 22.4 0 a11.2 11.2 0 1 0 -22.4 0zM-11.2 84 a11.2 11.2 0 1 0 22.4 0 a11.2 11.2 0 1 0 -22.4 0zM-11.2 -84 a11.2 11.2 0 1 0 22.4 0 a11.2 11.2 0 1 0 -22.4 0zM-11.2 112 a11.2 11.2 0 1 0 22.4 0 a11.2 11.2 0 1 0 -22.4 0zM-11.2 -112 a11.2 11.2 0 1 0 22.4 0 a11.2 11.2 0 1 0 -22.4 0zM-11.2 140 a11.2 11.2 0 1 0 22.4 0 a11.2 11.2 0 1 0 -22.4 0zM-11.2 -140 a11.2 11.2 0 1 0 22.4 0 a11.2 11.2 0 1 0 -22.4 0zM-11.2 168 a11.2 11.2 0 1 0 22.4 0 a11.2 11.2 0 1 0 -22.4 0zM-11.2 -168 a11.2 11.2 0 1 0 22.4 0 a11.2 11.2 0 1 0 -22.4 0zM-11.2 196 a11.2 11.2 0 1 0 22.4 0 a11.2 11.2 0 1 0 -22.4 0zM-11.2 -196 a11.2 11.2 0 1 0 22.4 0 a11.2 11.2 0 1 0 -22.4 0zM-11.2 224 a11.2 11.2 0 1 0 22.4 0 a11.2 11.2 0 1 0 -22.4 0zM-11.2 -224 a11.2 11.2 0 1 0 22.4 0 a11.2 11.2 0 1 0 -22.4 0zM-11.2 252 a11.2 11.2 0 1 0 22.4 0 a11.2 11.2 0 1 0 -22.4 0zM-11.2 -252 a11.2 11.2 0 1 0 22.4 0 a11.2 11.2 0 1 0 -22.4 0zM-11.2 280 a11.2 11.2 0 1 0 22.4 0 a11.2 11.2 0 1 0 -22.4 0zM-11.2 -280 a11.2 11.2 0 1 0 22.4 0 a11.2 11.2 0 1 0 -22.4 0zM-11.2 308 a11.2 11.2 0 1 0 22.4 0 a11.2 11.2 0 1 0 -22.4 0zM-11.2 -308 a11.2 11.2 0 1 0 22.4 0 a11.2 11.2 0 1 0 -22.4 0zM-11.2 336 a11.2 11.2 0 1 0 22.4 0 a11.2 11.2 0 1 0 -22.4 0zM-11.2 -336 a11.2 11.2 0 1 0 22.4 0 a11.2 11.2 0 1 0 -22.4 0zM-11.2 364 a11.2 11.2 0 1 0 22.4 0 a11.2 11.2 0 1 0 -22.4 0zM-11.2 -364 a11.2 11.2 0 1 0 22.4 0 a11.2 11.2 0 1 0 -22.4 0z" id="SvgjsPath1710"></path></defs></svg>